<svg width="127" height="31" viewBox="0 0 127 31" fill="none" xmlns="http://www.w3.org/2000/svg">
<g style="mix-blend-mode:difference" clip-path="url(#clip0_746_919)">
<g clip-path="url(#clip1_746_919)">
<path d="M0.0936279 14.7638C0.0936279 7.82154 0.0936279 4.33497 2.26315 2.17515C4.46388 0.0307619 7.97569 0.0307617 15.0149 0.0307617H16.2636C23.2872 0.0307617 26.8146 0.0307619 28.9997 2.17515C31.1692 4.31955 31.1692 7.82154 31.1692 14.7638V15.998C31.1692 22.9403 31.1692 26.4268 28.9997 28.5867C26.8302 30.731 23.2872 30.731 16.2636 30.731H15.0149C7.9913 30.731 4.46388 30.731 2.27875 28.5867C0.0936279 26.4268 0.0936279 22.9557 0.0936279 15.998V14.7638Z" fill="white"/>
<path d="M15.6236 15.3036C17.1376 15.3036 18.5111 14.6865 19.4944 13.7146C20.4777 12.7427 21.1021 11.3851 21.1021 9.88861C21.1021 8.39216 20.4777 7.03456 19.4944 6.06264C18.5111 5.09072 17.1376 4.47363 15.6236 4.47363C14.1096 4.47363 12.7361 5.09072 11.7528 6.06264C10.7695 7.01913 10.1452 8.37673 10.1452 9.88861C10.1452 11.4005 10.7695 12.7427 11.7528 13.7146C12.7361 14.6865 14.1253 15.3036 15.6236 15.3036ZM13.8755 8.1299C14.3282 7.68251 14.9525 7.40482 15.6392 7.40482C16.3416 7.40482 16.9503 7.68251 17.4029 8.1299C17.8556 8.57729 18.1365 9.19438 18.1365 9.87318C18.1365 10.5674 17.8556 11.1691 17.4029 11.6165C16.9503 12.0639 16.326 12.3415 15.6392 12.3415C14.9369 12.3415 14.3282 12.0639 13.8755 11.6165C13.4229 11.1691 13.1419 10.552 13.1419 9.87318C13.1419 9.19438 13.4385 8.57729 13.8755 8.1299Z" fill="black"/>
<path d="M23.0219 17.4941L21.4142 15.3189C21.3206 15.1955 21.1333 15.18 21.024 15.288C19.5101 16.5685 17.6371 17.4016 15.6237 17.4016C13.6102 17.4016 11.7529 16.5685 10.2233 15.288C10.114 15.1955 9.92672 15.2109 9.83307 15.3189L8.22544 17.4941C8.1474 17.6021 8.16301 17.741 8.25666 17.8335C9.61456 18.9134 11.191 19.654 12.8298 20.0396L9.42726 25.9637C9.33361 26.1334 9.45848 26.3494 9.64578 26.3494H12.9703C13.0795 26.3494 13.1732 26.2877 13.2044 26.1797L15.5768 20.9344L17.9493 26.1797C17.9805 26.2723 18.0741 26.3494 18.1834 26.3494H21.5079C21.7108 26.3494 21.8201 26.1488 21.7264 25.9637L18.3239 20.0396C19.9627 19.654 21.5391 18.9443 22.897 17.8335C23.0999 17.741 23.1155 17.6021 23.0219 17.4941Z" fill="black"/>
</g>
<path fill-rule="evenodd" clip-rule="evenodd" d="M44.3927 10.6877C47.1307 10.6877 49.0055 12.6364 49.0055 15.3861C49.0055 18.0811 47.1116 20.0487 44.3927 20.0487C41.6378 20.0487 39.763 18.1547 39.763 15.3861C39.763 12.6175 41.6548 10.6877 44.3927 10.6877ZM36.5458 15.3861C36.5458 19.7755 40.0387 23.017 44.3927 23.017C48.7107 23.017 52.2206 19.7586 52.2206 15.3861C52.2206 11.0135 48.7298 7.71729 44.3927 7.71729C40.0557 7.71729 36.5458 10.9967 36.5458 15.3861ZM54.1506 7.93591C53.8939 7.93591 53.7646 8.08096 53.7646 8.31851V22.4558C53.7646 22.7101 53.9109 22.8384 54.1506 22.8384H56.5767C56.8334 22.8384 56.9627 22.6933 56.9627 22.4558V16.3363L62.7695 22.6386L62.8045 22.6655C62.9467 22.7752 63.0286 22.8384 63.3018 22.8384H66.7566C66.9962 22.8384 67.0132 22.6008 66.8669 22.4368L59.7007 15.1506L66.5 8.33953C66.6463 8.17556 66.6294 7.93802 66.3897 7.93802H62.8989C62.6783 7.93802 62.5298 7.99267 62.3835 8.15664L56.9627 14.0932V8.31851C56.9627 8.06415 56.8164 7.93591 56.5767 7.93591H54.1506ZM69.0641 22.5755C69.414 22.9308 69.8488 23.1074 70.3684 23.1074C70.8731 23.1074 71.3037 22.9308 71.6621 22.5755C72.0205 22.2202 72.1986 21.7725 72.1986 21.2721C72.1986 20.7718 72.0205 20.3472 71.6621 20.0003C71.3037 19.6535 70.888 19.479 70.3684 19.479C69.8488 19.479 69.414 19.6535 69.0641 20.0003C68.7142 20.3493 68.5381 20.7571 68.5381 21.2721C68.5381 21.7872 68.7142 22.2202 69.0641 22.5755ZM72.9065 10.4375V8.3458C72.9065 8.16291 73.0549 8.01576 73.2394 8.01576H85.205C85.3895 8.01576 85.538 8.16291 85.538 8.3458V10.4375C85.538 10.6204 85.3895 10.7675 85.205 10.7675H80.7598V22.6155C80.7598 22.7984 80.6113 22.9455 80.4268 22.9455H77.9943C77.8098 22.9455 77.6613 22.7984 77.6613 22.6155V10.7675H73.2394C73.0549 10.7675 72.9065 10.6204 72.9065 10.4375ZM87.905 22.9455H98.4772V22.9476C98.6766 22.9476 98.8399 22.7858 98.8399 22.5882V20.5553C98.8399 20.3577 98.6766 20.1959 98.4772 20.1959H90.6409V16.3573H96.6915C96.8909 16.3573 97.0542 16.1954 97.0542 15.9978V14.007C97.0542 13.8094 96.8909 13.6475 96.6915 13.6475H90.6409V10.7675H98.2397C98.4391 10.7675 98.6024 10.6057 98.6024 10.4081V8.37523C98.6024 8.17763 98.4391 8.01576 98.2397 8.01576H87.905C87.7057 8.01576 87.5424 8.17763 87.5424 8.37523V22.5861C87.5424 22.7837 87.7057 22.9455 87.905 22.9455ZM107.771 23.2461C105.431 23.2461 103.489 22.5208 101.938 21.0703C100.39 19.5925 99.6141 17.7299 99.6141 15.4827C99.6141 13.2354 100.382 11.3456 101.917 9.89505C103.468 8.44454 105.417 7.71928 107.771 7.71928C109.158 7.71928 110.424 8.00098 111.567 8.56437C111.681 8.62113 111.751 8.73675 111.751 8.86288V11.4696C111.751 11.5915 111.618 11.663 111.512 11.5999C110.409 10.9335 109.168 10.5993 107.792 10.5993C106.415 10.5993 105.173 11.0618 104.199 11.9846C103.253 12.8949 102.778 14.0616 102.778 15.4827C102.778 16.9038 103.266 18.0768 104.242 19.0018C105.202 19.912 106.428 20.3661 107.921 20.3661C109.414 20.3661 110.748 19.9919 111.809 19.2456C111.91 19.1741 112.053 19.2477 112.053 19.3717V21.9637C112.053 22.0836 111.989 22.195 111.883 22.2538C110.702 22.9139 109.329 23.244 107.771 23.244V23.2461ZM114.351 22.9455H116.796C116.977 22.9455 117.123 22.8005 117.123 22.6218V16.3972H123.922V22.6218C123.922 22.8005 124.069 22.9455 124.249 22.9455H126.673C126.853 22.9455 127 22.8005 127 22.6218V8.3395C127 8.16081 126.853 8.01576 126.673 8.01576H124.249C124.069 8.01576 123.922 8.16081 123.922 8.3395V13.6034H117.123V8.3395C117.123 8.16081 116.977 8.01576 116.796 8.01576H114.351C114.171 8.01576 114.024 8.16081 114.024 8.3395V22.6218C114.024 22.8005 114.171 22.9455 114.351 22.9455Z" fill="white"/>
</g>
<defs>
<clipPath id="clip0_746_919">
<rect width="127" height="30.9275" fill="white"/>
</clipPath>
<clipPath id="clip1_746_919">
<rect width="31.2161" height="30.8546" fill="white"/>
</clipPath>
</defs>
</svg>
