<svg width="127" height="31" viewBox="0 0 127 31" fill="none" xmlns="http://www.w3.org/2000/svg">
<g clip-path="url(#clip0_1128_836)">
<g clip-path="url(#clip1_1128_836)">
<path d="M0.09375 14.7638C0.09375 7.82154 0.09375 4.33497 2.26327 2.17515C4.464 0.0307619 7.97581 0.0307617 15.015 0.0307617H16.2637C23.2873 0.0307617 26.8147 0.0307619 28.9999 2.17515C31.1694 4.31955 31.1694 7.82154 31.1694 14.7638V15.998C31.1694 22.9403 31.1694 26.4268 28.9999 28.5867C26.8303 30.731 23.2873 30.731 16.2637 30.731H15.015C7.99142 30.731 4.464 30.731 2.27888 28.5867C0.09375 26.4268 0.09375 22.9557 0.09375 15.998V14.7638Z" class='logo-bg'/>
<path d="M15.6239 15.3036C17.1379 15.3036 18.5114 14.6865 19.4947 13.7146C20.478 12.7427 21.1024 11.3851 21.1024 9.88861C21.1024 8.39216 20.478 7.03456 19.4947 6.06264C18.5114 5.09072 17.1379 4.47363 15.6239 4.47363C14.11 4.47363 12.7364 5.09072 11.7531 6.06264C10.7698 7.01913 10.1455 8.37673 10.1455 9.88861C10.1455 11.4005 10.7698 12.7427 11.7531 13.7146C12.7364 14.6865 14.1256 15.3036 15.6239 15.3036ZM13.8758 8.1299C14.3285 7.68251 14.9528 7.40482 15.6395 7.40482C16.3419 7.40482 16.9506 7.68251 17.4033 8.1299C17.8559 8.57729 18.1368 9.19438 18.1368 9.87318C18.1368 10.5674 17.8559 11.1691 17.4033 11.6165C16.9506 12.0639 16.3263 12.3415 15.6395 12.3415C14.9372 12.3415 14.3285 12.0639 13.8758 11.6165C13.4232 11.1691 13.1423 10.552 13.1423 9.87318C13.1423 9.19438 13.4388 8.57729 13.8758 8.1299Z" class='logo-man'/>
<path d="M23.0222 17.4941L21.4145 15.3189C21.3209 15.1955 21.1336 15.18 21.0243 15.288C19.5104 16.5685 17.6374 17.4016 15.624 17.4016C13.6105 17.4016 11.7532 16.5685 10.2236 15.288C10.1143 15.1955 9.92703 15.2109 9.83338 15.3189L8.22575 17.4941C8.14771 17.6021 8.16332 17.741 8.25696 17.8335C9.61486 18.9134 11.1913 19.654 12.8301 20.0396L9.42757 25.9637C9.33392 26.1334 9.45878 26.3494 9.64608 26.3494H12.9706C13.0799 26.3494 13.1735 26.2877 13.2047 26.1797L15.5771 20.9344L17.9496 26.1797C17.9808 26.2723 18.0744 26.3494 18.1837 26.3494H21.5082C21.7111 26.3494 21.8204 26.1488 21.7267 25.9637L18.3242 20.0396C19.963 19.654 21.5394 18.9443 22.8973 17.8335C23.1002 17.741 23.1158 17.6021 23.0222 17.4941Z" class='logo-man'/>
</g>
<path class='logo-text' fill-rule="evenodd" clip-rule="evenodd" d="M44.3929 10.6877C47.1308 10.6877 49.0056 12.6364 49.0056 15.3861C49.0056 18.0811 47.1117 20.0487 44.3929 20.0487C41.6379 20.0487 39.7632 18.1547 39.7632 15.3861C39.7632 12.6175 41.6549 10.6877 44.3929 10.6877ZM36.5459 15.3861C36.5459 19.7755 40.0389 23.017 44.3929 23.017C48.7108 23.017 52.2207 19.7586 52.2207 15.3861C52.2207 11.0135 48.7299 7.71729 44.3929 7.71729C40.0558 7.71729 36.5459 10.9967 36.5459 15.3861ZM54.1507 7.93591C53.8941 7.93591 53.7647 8.08096 53.7647 8.31851V22.4558C53.7647 22.7101 53.911 22.8384 54.1507 22.8384H56.5769C56.8335 22.8384 56.9629 22.6933 56.9629 22.4558V16.3363L62.7696 22.6386L62.8046 22.6655C62.9468 22.7752 63.0287 22.8384 63.3019 22.8384H66.7567C66.9964 22.8384 67.0133 22.6008 66.867 22.4368L59.7008 15.1506L66.5001 8.33953C66.6464 8.17556 66.6295 7.93802 66.3898 7.93802H62.899C62.6784 7.93802 62.53 7.99267 62.3836 8.15664L56.9629 14.0932V8.31851C56.9629 8.06415 56.8165 7.93591 56.5769 7.93591H54.1507ZM69.0642 22.5755C69.4142 22.9308 69.8489 23.1074 70.3685 23.1074C70.8733 23.1074 71.3038 22.9308 71.6622 22.5755C72.0206 22.2202 72.1988 21.7725 72.1988 21.2721C72.1988 20.7718 72.0206 20.3472 71.6622 20.0003C71.3038 19.6535 70.8881 19.479 70.3685 19.479C69.8489 19.479 69.4142 19.6535 69.0642 20.0003C68.7143 20.3493 68.5383 20.7571 68.5383 21.2721C68.5383 21.7872 68.7143 22.2202 69.0642 22.5755ZM72.9066 10.4375V8.3458C72.9066 8.16291 73.055 8.01576 73.2395 8.01576H85.2051C85.3896 8.01576 85.5381 8.16291 85.5381 8.3458V10.4375C85.5381 10.6204 85.3896 10.7675 85.2051 10.7675H80.7599V22.6155C80.7599 22.7984 80.6115 22.9455 80.4269 22.9455H77.9944C77.8099 22.9455 77.6614 22.7984 77.6614 22.6155V10.7675H73.2395C73.055 10.7675 72.9066 10.6204 72.9066 10.4375ZM87.9051 22.9455H98.4774V22.9476C98.6767 22.9476 98.84 22.7858 98.84 22.5882V20.5553C98.84 20.3577 98.6767 20.1959 98.4774 20.1959H90.641V16.3573H96.6916C96.891 16.3573 97.0543 16.1954 97.0543 15.9978V14.007C97.0543 13.8094 96.891 13.6475 96.6916 13.6475H90.641V10.7675H98.2398C98.4392 10.7675 98.6025 10.6057 98.6025 10.4081V8.37523C98.6025 8.17763 98.4392 8.01576 98.2398 8.01576H87.9051C87.7058 8.01576 87.5425 8.17763 87.5425 8.37523V22.5861C87.5425 22.7837 87.7058 22.9455 87.9051 22.9455ZM107.771 23.2461C105.432 23.2461 103.489 22.5208 101.939 21.0703C100.39 19.5925 99.6142 17.7299 99.6142 15.4827C99.6142 13.2354 100.382 11.3456 101.917 9.89505C103.468 8.44454 105.417 7.71928 107.771 7.71928C109.158 7.71928 110.424 8.00098 111.567 8.56437C111.682 8.62113 111.752 8.73675 111.752 8.86288V11.4696C111.752 11.5915 111.618 11.663 111.512 11.5999C110.409 10.9335 109.168 10.5993 107.792 10.5993C106.416 10.5993 105.173 11.0618 104.199 11.9846C103.253 12.8949 102.778 14.0616 102.778 15.4827C102.778 16.9038 103.266 18.0768 104.242 19.0018C105.203 19.912 106.428 20.3661 107.921 20.3661C109.414 20.3661 110.748 19.9919 111.809 19.2456C111.911 19.1741 112.053 19.2477 112.053 19.3717V21.9637C112.053 22.0836 111.989 22.195 111.883 22.2538C110.702 22.9139 109.33 23.244 107.771 23.244V23.2461ZM114.351 22.9455H116.796C116.977 22.9455 117.123 22.8005 117.123 22.6218V16.3972H123.922V22.6218C123.922 22.8005 124.069 22.9455 124.249 22.9455H126.673C126.853 22.9455 127 22.8005 127 22.6218V8.3395C127 8.16081 126.853 8.01576 126.673 8.01576H124.249C124.069 8.01576 123.922 8.16081 123.922 8.3395V13.6034H117.123V8.3395C117.123 8.16081 116.977 8.01576 116.796 8.01576H114.351C114.171 8.01576 114.025 8.16081 114.025 8.3395V22.6218C114.025 22.8005 114.171 22.9455 114.351 22.9455Z" />
</g>
<defs>
<clipPath id="clip0_1128_836">
<rect width="127" height="30.9275" fill="white"/>
</clipPath>
<clipPath id="clip1_1128_836">
<rect width="31.2161" height="30.8546" fill="white"/>
</clipPath>
</defs>
</svg>
