<svg width="56" height="56" viewBox="0 0 56 56" fill="none" xmlns="http://www.w3.org/2000/svg">
<g id="Group">
<path id="Vector" d="M0.167999 26.796C0.167999 14.196 0.167999 7.86803 4.06 3.94803C8.008 0.0560305 14.308 0.0560303 26.936 0.0560303H29.176C41.776 0.0560303 48.104 0.0560305 52.024 3.94803C55.916 7.84003 55.916 14.196 55.916 26.796V29.036C55.916 41.636 55.916 47.964 52.024 51.884C48.132 55.776 41.776 55.776 29.176 55.776H26.936C14.336 55.776 8.008 55.776 4.088 51.884C0.167999 47.964 0.167999 41.664 0.167999 29.036V26.796Z" fill="#FF7700"/>
<g id="Group_2">
<path id="Vector_2" d="M28.028 27.776C30.744 27.776 33.208 26.656 34.972 24.892C36.736 23.128 37.856 20.664 37.856 17.948C37.856 15.232 36.736 12.768 34.972 11.004C33.208 9.23999 30.744 8.12 28.028 8.12C25.312 8.12 22.848 9.23999 21.084 11.004C19.32 12.74 18.2 15.204 18.2 17.948C18.2 20.692 19.32 23.128 21.084 24.892C22.848 26.656 25.34 27.776 28.028 27.776ZM24.892 14.756C25.704 13.944 26.824 13.44 28.056 13.44C29.316 13.44 30.408 13.944 31.22 14.756C32.032 15.568 32.536 16.688 32.536 17.92C32.536 19.18 32.032 20.272 31.22 21.084C30.408 21.896 29.288 22.4 28.056 22.4C26.796 22.4 25.704 21.896 24.892 21.084C24.08 20.272 23.576 19.152 23.576 17.92C23.576 16.688 24.108 15.568 24.892 14.756Z" fill="white"/>
<path id="Vector_3" d="M41.3 31.752L38.416 27.804C38.248 27.58 37.912 27.552 37.716 27.748C35 30.072 31.64 31.584 28.028 31.584C24.416 31.584 21.084 30.072 18.34 27.748C18.144 27.58 17.808 27.608 17.64 27.804L14.756 31.752C14.616 31.948 14.644 32.2 14.812 32.368C17.248 34.328 20.076 35.672 23.016 36.372L16.912 47.124C16.744 47.432 16.968 47.824 17.304 47.824H23.268C23.464 47.824 23.632 47.712 23.688 47.516L27.944 37.996L32.2 47.516C32.256 47.684 32.424 47.824 32.62 47.824H38.584C38.948 47.824 39.144 47.46 38.976 47.124L32.872 36.372C35.812 35.672 38.64 34.384 41.076 32.368C41.44 32.2 41.468 31.948 41.3 31.752Z" fill="white"/>
</g>
</g>
</svg>
