<svg width="16" height="16" viewBox="0 0 16 16" fill="none" xmlns="http://www.w3.org/2000/svg">
<path d="M3.43321 9.02082C5.19739 10.785 7.47163 13.0593 8.60473 14.1924C8.99533 14.5829 8.99533 15.2161 8.60473 15.6066C8.21423 15.9971 7.58113 15.9971 7.19053 15.6066C5.61823 14.0342 1.84853 10.2646 0.29353 8.70962L0.2885 8.70455L0.28343 8.69952C0.28313 8.69912 0.28273 8.69872 0.28233 8.69842C-0.0924705 8.32352 -0.0943705 7.71632 0.27823 7.33922C1.80793 5.79092 5.53393 2.01942 7.11723 0.416817C7.31073 0.221017 7.57433 0.110417 7.84973 0.109517C8.12503 0.108717 8.38933 0.217717 8.58393 0.412417C8.58433 0.412717 8.58473 0.413117 8.58503 0.413517C8.95993 0.788317 8.96173 1.39552 8.58913 1.77262C7.47007 2.90536 5.17535 5.22805 3.40417 7.02082H15.0092C15.5615 7.02082 16.0092 7.46853 16.0092 8.02082C16.0092 8.5731 15.5615 9.02082 15.0092 9.02082H3.43321Z" fill="black"/>
</svg>
