<svg width="359" height="255" viewBox="0 0 359 255" fill="none" xmlns="http://www.w3.org/2000/svg">
<path d="M6.22612 12.5208H7.43321H19.0092C19.2853 12.5208 19.5092 12.297 19.5092 12.0208C19.5092 11.7447 19.2853 11.5208 19.0092 11.5208H7.40417H6.20733L7.04848 10.6694L12.2334 5.42122L12.2335 5.42119C12.4125 5.23995 12.4119 4.94836 12.2324 4.76796C12.2321 4.76768 12.2318 4.7674 12.2315 4.76712L12.2303 4.76588C12.2302 4.76578 12.2301 4.76568 12.23 4.76559C12.1297 4.66535 11.9934 4.60915 11.8514 4.60951L6.22612 12.5208ZM6.22612 12.5208L7.07965 13.3744M6.22612 12.5208L7.07965 13.3744M7.07965 13.3744L12.2512 18.546L12.2512 18.546M7.07965 13.3744L12.2512 18.546M12.2512 18.546C12.4465 18.7412 12.4465 19.0578 12.2512 19.253L12.2512 19.2531M12.2512 18.546L12.2512 19.2531M12.2512 19.2531C12.056 19.4483 11.7395 19.4483 11.5441 19.2531C11.5441 19.2531 11.5441 19.253 11.544 19.253L4.64837 12.3574L4.64708 12.3561L4.64334 12.3523L4.64335 12.3523M12.2512 19.2531L4.64335 12.3523M4.64335 12.3523L4.64074 12.3497M4.64335 12.3523L4.64074 12.3497M4.64074 12.3497C4.64064 12.3496 4.64054 12.3495 4.64045 12.3494L4.64074 12.3497ZM4.63262 12.3416C4.45544 12.1608 4.45572 11.871 4.6339 11.6906L4.63391 11.6906L11.4729 4.76828C11.5728 4.66719 11.7089 4.61003 11.8512 4.60951L4.63262 12.3416Z" fill="black" stroke="white"/>
<path d="M21 119H15.9V81.38H0.9V76.7H36.06V81.38H21V119ZM64.5361 103.52C64.5361 104.04 64.5161 104.54 64.4761 105.02H38.4361C38.7161 108.1 39.8561 110.56 41.8561 112.4C43.8561 114.24 46.3961 115.16 49.4761 115.16C51.6361 115.16 53.5561 114.72 55.2361 113.84C56.9161 112.96 58.1561 111.8 58.9561 110.36L63.4561 111.08C62.2161 113.84 60.3161 115.96 57.7561 117.44C55.1961 118.88 52.3561 119.6 49.2361 119.6C46.1561 119.6 43.4161 118.92 41.0161 117.56C38.6161 116.2 36.7361 114.3 35.3761 111.86C34.0561 109.42 33.3961 106.66 33.3961 103.58C33.3961 100.5 34.0561 97.76 35.3761 95.36C36.6961 92.92 38.5361 91.02 40.8961 89.66C43.2561 88.3 45.9361 87.62 48.9361 87.62C51.9361 87.62 54.6161 88.3 56.9761 89.66C59.3361 91.02 61.1761 92.92 62.4961 95.36C63.8561 97.76 64.5361 100.48 64.5361 103.52ZM48.9361 91.94C46.2961 91.94 44.0361 92.76 42.1561 94.4C40.3161 96 39.1361 98.16 38.6161 100.88H59.3161C58.8361 98.2 57.6561 96.04 55.7761 94.4C53.9361 92.76 51.6561 91.94 48.9361 91.94ZM84.5681 119.6C81.4881 119.6 78.7481 118.92 76.3481 117.56C73.9481 116.2 72.0681 114.3 70.7081 111.86C69.3881 109.42 68.7281 106.66 68.7281 103.58C68.7281 100.5 69.3881 97.76 70.7081 95.36C72.0681 92.92 73.9481 91.02 76.3481 89.66C78.7881 88.3 81.5281 87.62 84.5681 87.62C87.7281 87.62 90.5881 88.38 93.1481 89.9C95.7081 91.38 97.5881 93.52 98.7881 96.32L94.2281 97.1C93.4681 95.58 92.2481 94.36 90.5681 93.44C88.8881 92.48 86.9881 92 84.8681 92C82.7081 92 80.7881 92.48 79.1081 93.44C77.4281 94.4 76.1081 95.76 75.1481 97.52C74.2281 99.28 73.7681 101.3 73.7681 103.58C73.7681 107.06 74.7881 109.86 76.8281 111.98C78.8681 114.1 81.5481 115.16 84.8681 115.16C87.1081 115.16 89.0881 114.66 90.8081 113.66C92.5681 112.62 93.8081 111.3 94.5281 109.7L99.0281 110.48C97.8681 113.4 95.9681 115.66 93.3281 117.26C90.7281 118.82 87.8081 119.6 84.5681 119.6ZM104.754 119V76.7H109.554V92.48C110.594 90.92 111.894 89.72 113.454 88.88C115.054 88.04 116.814 87.62 118.734 87.62C120.974 87.62 122.954 88.16 124.674 89.24C126.434 90.28 127.794 91.76 128.754 93.68C129.754 95.6 130.254 97.76 130.254 100.16V119H125.454V100.4C125.454 97.92 124.754 95.9 123.354 94.34C121.954 92.78 120.134 92 117.894 92C116.374 92 114.974 92.36 113.694 93.08C112.414 93.8 111.394 94.8 110.634 96.08C109.914 97.36 109.554 98.8 109.554 100.4V119H104.754ZM34.86 168H28.86L16.98 151.38H9.9V168H4.8V125.7H18.9C21.78 125.7 24.34 126.24 26.58 127.32C28.82 128.4 30.56 129.92 31.8 131.88C33.08 133.84 33.72 136.08 33.72 138.6C33.72 141.76 32.7 144.46 30.66 146.7C28.66 148.94 25.98 150.38 22.62 151.02L34.86 168ZM9.9 130.38V146.7H18.9C21.74 146.7 24.04 145.96 25.8 144.48C27.56 143 28.44 141.04 28.44 138.6C28.44 136.16 27.56 134.18 25.8 132.66C24.04 131.14 21.74 130.38 18.9 130.38H9.9ZM51.9337 136.62C55.6138 136.62 58.5138 137.86 60.6338 140.34C62.7938 142.78 63.8738 146.26 63.8738 150.78V168H60.6338L59.3138 163.14C56.8738 166.78 53.4738 168.6 49.1138 168.6C45.9938 168.6 43.4338 167.7 41.4338 165.9C39.4738 164.1 38.4938 161.78 38.4938 158.94C38.4938 156.02 39.6338 153.7 41.9138 151.98C44.2338 150.22 47.5538 149.34 51.8738 149.34H59.0738C58.9138 146.54 58.1938 144.42 56.9138 142.98C55.6338 141.5 53.9138 140.76 51.7538 140.76C50.1938 140.76 48.7738 141.12 47.4938 141.84C46.2538 142.56 45.2938 143.56 44.6138 144.84L40.1138 144.12C40.9938 141.8 42.4938 139.98 44.6138 138.66C46.7738 137.3 49.2138 136.62 51.9337 136.62ZM50.0138 164.46C52.6938 164.46 54.8738 163.58 56.5538 161.82C58.2338 160.06 59.0738 157.54 59.0738 154.26V153.48H51.9337C46.2138 153.48 43.3538 155.26 43.3538 158.82C43.3538 160.54 43.9538 161.92 45.1538 162.96C46.3538 163.96 47.9738 164.46 50.0138 164.46ZM85.253 168.6C82.373 168.6 79.773 167.92 77.453 166.56C75.173 165.2 73.393 163.3 72.113 160.86C70.833 158.42 70.193 155.66 70.193 152.58C70.193 149.5 70.833 146.76 72.113 144.36C73.393 141.92 75.173 140.02 77.453 138.66C79.773 137.3 82.373 136.62 85.253 136.62C87.893 136.62 90.173 137.16 92.093 138.24C94.053 139.32 95.673 140.68 96.953 142.32V125.7H101.753V168H98.513L97.073 162.72C95.793 164.44 94.173 165.86 92.213 166.98C90.253 168.06 87.933 168.6 85.253 168.6ZM86.093 164.22C88.213 164.22 90.093 163.74 91.733 162.78C93.373 161.78 94.653 160.4 95.573 158.64C96.493 156.88 96.953 154.86 96.953 152.58C96.953 150.34 96.493 148.34 95.573 146.58C94.653 144.82 93.373 143.46 91.733 142.5C90.093 141.5 88.213 141 86.093 141C83.973 141 82.073 141.5 80.393 142.5C78.753 143.46 77.473 144.82 76.553 146.58C75.673 148.34 75.233 150.34 75.233 152.58C75.233 154.86 75.673 156.88 76.553 158.64C77.473 160.4 78.753 161.78 80.393 162.78C82.073 163.74 83.973 164.22 86.093 164.22ZM122.07 136.62C125.75 136.62 128.65 137.86 130.77 140.34C132.93 142.78 134.01 146.26 134.01 150.78V168H130.77L129.45 163.14C127.01 166.78 123.61 168.6 119.25 168.6C116.13 168.6 113.57 167.7 111.57 165.9C109.61 164.1 108.63 161.78 108.63 158.94C108.63 156.02 109.77 153.7 112.05 151.98C114.37 150.22 117.69 149.34 122.01 149.34H129.21C129.05 146.54 128.33 144.42 127.05 142.98C125.77 141.5 124.05 140.76 121.89 140.76C120.33 140.76 118.91 141.12 117.63 141.84C116.39 142.56 115.43 143.56 114.75 144.84L110.25 144.12C111.13 141.8 112.63 139.98 114.75 138.66C116.91 137.3 119.35 136.62 122.07 136.62ZM120.15 164.46C122.83 164.46 125.01 163.58 126.69 161.82C128.37 160.06 129.21 157.54 129.21 154.26V153.48H122.07C116.35 153.48 113.49 155.26 113.49 158.82C113.49 160.54 114.09 161.92 115.29 162.96C116.49 163.96 118.11 164.46 120.15 164.46ZM142.13 168V137.22H145.37L146.57 141.6C148.29 138.68 150.93 137.22 154.49 137.22H156.05L156.53 141.84H153.77C151.45 141.84 149.73 142.56 148.61 144C147.49 145.4 146.93 147.24 146.93 149.52V168H142.13Z" fill="black"/>
<path fill-rule="evenodd" clip-rule="evenodd" d="M16.123 218H20.9092V232.422L34.6172 224.567L37.0015 228.666L23.2082 236.569L36.9384 244.436L34.5454 248.55L20.9092 240.737L20.9092 255H16.123L16.123 240.629L2.44883 248.464L0.0644955 244.365L13.6534 236.579L0 228.756L2.39309 224.642L16.123 232.509V218Z" fill="black"/>
<path d="M661.751 126.947L239.566 126.947" stroke="black"/>
<rect x="269.715" y="30.9844" width="361.887" height="191.927" rx="95.9637" stroke="black"/>
<rect x="240.066" y="0.5" width="421.185" height="252.896" rx="126.448" stroke="#BABABA"/>
<rect x="299.782" y="60.2159" width="301.754" height="133.464" rx="66.7322" stroke="black"/>
<rect x="329.849" y="90.6992" width="241.621" height="72.4961" rx="36.2481" stroke="black"/>
</svg>
