<svg width="200" height="200" viewBox="0 0 200 200" fill="none" xmlns="http://www.w3.org/2000/svg">
<path d="M0.599609 95.7C0.599609 50.7 0.599609 28.1 14.4996 14.1C28.5996 0.199952 51.0996 0.199951 96.1996 0.199951H104.2C149.2 0.199951 171.8 0.199952 185.8 14.1C199.7 28 199.7 50.7 199.7 95.7V103.7C199.7 148.7 199.7 171.3 185.8 185.3C171.9 199.2 149.2 199.2 104.2 199.2H96.1996C51.1996 199.2 28.5996 199.2 14.5996 185.3C0.599609 171.3 0.599609 148.8 0.599609 103.7V95.7Z" fill="#FF7700"/>
<path d="M100.1 99.2C109.8 99.2 118.6 95.2 124.9 88.9C131.2 82.6 135.2 73.8 135.2 64.1C135.2 54.4 131.2 45.6 124.9 39.3C118.6 33 109.8 29 100.1 29C90.4 29 81.6 33 75.3 39.3C69 45.5 65 54.3 65 64.1C65 73.9 69 82.6 75.3 88.9C81.6 95.2 90.5 99.2 100.1 99.2ZM88.9 52.7C91.8 49.8 95.8 48 100.2 48C104.7 48 108.6 49.8 111.5 52.7C114.4 55.6 116.2 59.6 116.2 64C116.2 68.5 114.4 72.4 111.5 75.3C108.6 78.2 104.6 80 100.2 80C95.7 80 91.8 78.2 88.9 75.3C86 72.4 84.2 68.4 84.2 64C84.2 59.6 86.1 55.6 88.9 52.7Z" fill="white"/>
<path d="M147.499 113.4L137.199 99.3C136.599 98.5 135.399 98.3999 134.699 99.0999C124.999 107.4 112.999 112.8 100.099 112.8C87.199 112.8 75.299 107.4 65.499 99.0999C64.799 98.4999 63.599 98.6 62.999 99.3L52.699 113.4C52.199 114.1 52.299 115 52.899 115.6C61.599 122.6 71.699 127.4 82.199 129.9L60.399 168.3C59.799 169.4 60.599 170.8 61.799 170.8H83.099C83.799 170.8 84.399 170.4 84.599 169.7L99.7991 135.7L114.999 169.7C115.199 170.3 115.799 170.8 116.499 170.8H137.799C139.099 170.8 139.799 169.5 139.199 168.3L117.399 129.9C127.899 127.4 137.999 122.8 146.699 115.6C147.999 115 148.099 114.1 147.499 113.4Z" fill="white"/>
</svg>
