<svg width="1801" height="127" viewBox="0 0 1801 127" fill="none" xmlns="http://www.w3.org/2000/svg">
<path d="M3.31958 79.4001C6.46433 87.4195 11.9165 94.3263 18.9866 99.2471C26.0567 104.168 34.4272 106.882 43.0396 107.045C51.6521 107.209 60.1196 104.815 67.3714 100.166C74.6232 95.517 80.3336 88.8221 83.7805 80.9279C87.2275 73.0336 88.2561 64.2945 86.7362 55.8157C85.2164 47.3368 81.2165 39.4991 75.2422 33.2935C69.2679 27.088 61.5877 22.7934 53.1727 20.9528C44.7576 19.1122 35.9858 19.8083 27.9663 22.9531L31.9414 33.0898C37.9559 30.7312 44.5348 30.2092 50.8461 31.5896C57.1574 32.9701 62.9176 36.191 67.3983 40.8452C71.879 45.4993 74.8789 51.3776 76.0188 57.7367C77.1587 64.0959 76.3872 70.6502 73.802 76.5709C71.2168 82.4916 66.934 87.5127 61.4952 90.9994C56.0563 94.486 49.7057 96.2815 43.2464 96.1588C36.787 96.0362 30.5091 94.0009 25.2066 90.3103C19.904 86.6197 15.8149 81.4396 13.4563 75.4251L3.31958 79.4001Z" fill="black"/>
<path d="M118.65 23.4151C110.722 26.7835 103.97 32.4273 99.25 39.6327C94.5295 46.838 92.0516 55.2814 92.1297 63.895C92.2078 72.5086 94.8385 80.9056 99.6889 88.0242C104.539 95.1427 111.392 100.663 119.38 103.887C127.367 107.111 136.132 107.894 144.565 106.137C152.998 104.38 160.72 100.162 166.756 94.016C172.791 87.87 176.869 80.0723 178.472 71.6089C180.076 63.1456 179.134 54.3967 175.766 46.4687L165.745 50.7265C168.271 56.6725 168.977 63.2342 167.775 69.5817C166.572 75.9292 163.514 81.7775 158.987 86.387C154.46 90.9965 148.668 94.1602 142.344 95.478C136.019 96.7958 129.446 96.2085 123.455 93.7904C117.464 91.3723 112.325 87.232 108.687 81.8931C105.049 76.5542 103.076 70.2565 103.018 63.7962C102.959 57.336 104.817 51.0035 108.358 45.5995C111.898 40.1955 116.961 35.9626 122.907 33.4363L118.65 23.4151Z" fill="black"/>
<path d="M243.885 103.851C251.866 100.61 258.706 95.0746 263.541 87.9454C268.376 80.8163 270.988 72.4135 271.047 63.7998C271.107 55.186 268.61 46.7481 263.874 39.5531C259.138 32.358 252.374 26.7291 244.439 23.3779C236.504 20.0268 227.753 19.104 219.293 20.7263C210.833 22.3486 203.044 26.4432 196.911 32.4921C190.779 38.541 186.577 46.2727 184.839 54.7093C183.1 63.146 183.902 71.9088 187.144 79.8896L197.232 75.7922C194.801 69.8066 194.199 63.2345 195.503 56.907C196.807 50.5795 199.958 44.7807 204.557 40.244C209.157 35.7074 214.999 32.6365 221.344 31.4198C227.688 30.203 234.252 30.8951 240.203 33.4084C246.155 35.9218 251.227 40.1435 254.779 45.5398C258.332 50.9361 260.204 57.2645 260.159 63.7248C260.115 70.1852 258.156 76.4872 254.53 81.8341C250.903 87.1809 245.773 91.3324 239.788 93.7636L243.885 103.851Z" fill="black"/>
<path d="M350.106 32.7033C344.015 26.6124 336.255 22.4643 327.807 20.7838C319.358 19.1033 310.601 19.9658 302.643 23.2622C294.685 26.5587 287.883 32.141 283.097 39.3032C278.311 46.4655 275.757 54.886 275.757 63.5C275.757 72.1139 278.311 80.5344 283.097 87.6967C287.882 94.859 294.685 100.441 302.643 103.738C310.601 107.034 319.358 107.897 327.807 106.216C336.255 104.536 344.015 100.388 350.106 94.2966L342.407 86.5975C337.839 91.1657 332.019 94.2767 325.682 95.5371C319.346 96.7975 312.778 96.1506 306.81 93.6783C300.841 91.2059 295.739 87.0192 292.15 81.6475C288.561 76.2758 286.645 69.9604 286.645 63.5C286.645 57.0395 288.561 50.7241 292.15 45.3524C295.739 39.9807 300.841 35.794 306.81 33.3217C312.778 30.8494 319.346 30.2025 325.682 31.4629C332.019 32.7232 337.839 35.8343 342.407 40.4025L350.106 32.7033Z" fill="black"/>
<path fill-rule="evenodd" clip-rule="evenodd" d="M405.239 19.947H416.421V53.8987L448.448 35.408L454.019 45.057L421.793 63.6627L453.875 82.1853L448.284 91.8697L416.421 73.4739V107.053H405.239V73.2202L373.289 91.6662L367.718 82.0173L399.469 63.6863L367.571 45.2703L373.163 35.5859L405.239 54.1051V19.947Z" fill="black"/>
<path d="M550.079 23.98V86.42H561.559V116.8H550.639V96.5H492.539V116.8H481.619V86.42H484.139C491.979 86.42 493.939 84.04 494.779 71.72L497.719 23.98H550.079ZM498.419 86.42H539.159V34.06H507.379L504.859 72.56C504.439 79.98 502.759 83.9 498.419 86.42ZM636.343 59.68C636.343 62.06 636.203 63.46 635.923 65.14H574.323C576.283 79.56 586.923 87.68 600.223 87.68C608.483 87.68 616.883 84.74 621.923 76.06L631.723 81.66C625.423 91.88 614.223 97.62 600.783 97.62C579.503 97.62 563.263 83.48 563.263 60.24C563.263 37.42 579.923 22.72 600.083 22.72C621.083 22.72 636.343 37.98 636.343 59.68ZM600.363 32.66C586.643 32.66 576.283 40.92 574.323 55.34H625.003C623.883 41.62 613.803 32.66 600.363 32.66ZM650.133 79.42L654.053 23.98H707.253V96.5H696.333V34.06H663.993L661.053 77.46C660.073 91.6 654.193 97.62 644.113 97.62C639.073 97.62 634.873 95.38 632.353 92.3L638.373 85.3C639.773 86.7 641.313 87.54 643.553 87.54C647.473 87.54 649.713 85.02 650.133 79.42ZM733.918 81.1L776.618 23.98H786.978V96.5H776.338V39.38L733.638 96.5H723.278V23.98H733.918V81.1ZM844.467 84.32L875.407 23.98H885.767V96.5H875.127V44.14L848.107 96.5H840.547L813.527 44.56V96.5H802.887V23.98H813.247L844.467 84.32ZM934.393 97.62C913.253 97.62 896.873 83.06 896.873 60.24C896.873 37.42 913.253 22.72 934.113 22.72C948.953 22.72 958.753 29.16 964.633 38.96L955.673 44.56C950.213 36.44 943.773 32.66 934.113 32.66C918.713 32.66 907.793 42.88 907.793 60.24C907.793 77.6 918.713 87.68 934.393 87.68C945.313 87.68 953.853 82.78 957.633 74.8L966.453 80.54C961.133 90.34 949.793 97.62 934.393 97.62ZM1000.32 23.98H1031.4V96.5H1020.48V71.72H1006.9L981.279 96.5H966.299L993.319 71.16C980.999 68.92 973.299 60.66 973.299 47.78C973.299 32.52 984.079 23.98 1000.32 23.98ZM1000.32 61.92H1020.48V33.64H1000.32C989.959 33.64 984.219 38.4 984.219 47.78C984.219 57.02 989.959 61.92 1000.32 61.92Z" fill="black"/>
<path fill-rule="evenodd" clip-rule="evenodd" d="M1109.89 19.947H1121.07V53.8987L1153.1 35.408L1158.67 45.057L1126.44 63.6627L1158.52 82.1853L1152.93 91.8697L1121.07 73.4739V107.053H1109.89V73.2202L1077.94 91.6662L1072.37 82.0173L1104.12 63.6863L1072.22 45.2703L1077.81 35.5859L1109.89 54.1051V19.947Z" fill="black"/>
<path d="M1184.44 26.2289C1177.06 30.6855 1171.18 37.2279 1167.53 45.0288C1163.87 52.8297 1162.62 61.5387 1163.91 70.0546C1165.21 78.5705 1169 86.5107 1174.81 92.8711C1180.62 99.2316 1188.18 103.727 1196.55 105.788C1204.91 107.849 1213.7 107.384 1221.8 104.451C1229.9 101.518 1236.95 96.2493 1242.05 89.311C1247.15 82.3727 1250.09 74.0764 1250.48 65.4713C1250.87 56.8661 1248.7 48.3386 1244.24 40.9671L1234.92 46.6003C1238.27 52.1289 1239.89 58.5246 1239.6 64.9784C1239.31 71.4323 1237.11 77.6545 1233.28 82.8582C1229.45 88.062 1224.17 92.0135 1218.09 94.2131C1212.02 96.4128 1205.43 96.7617 1199.15 95.2158C1192.88 93.6699 1187.21 90.2987 1182.85 85.5283C1178.49 80.758 1175.65 74.8028 1174.68 68.4159C1173.7 62.029 1174.65 55.4973 1177.39 49.6466C1180.13 43.7959 1184.54 38.8891 1190.07 35.5467L1184.44 26.2289Z" fill="black"/>
<path d="M1315.22 103.851C1323.2 100.61 1330.04 95.0746 1334.87 87.9454C1339.71 80.8163 1342.32 72.4135 1342.38 63.7998C1342.44 55.186 1339.94 46.7481 1335.2 39.5531C1330.47 32.358 1323.7 26.7291 1315.77 23.3779C1307.83 20.0268 1299.08 19.104 1290.62 20.7263C1282.16 22.3486 1274.37 26.4432 1268.24 32.4921C1262.11 38.541 1257.91 46.2727 1256.17 54.7093C1254.43 63.146 1255.23 71.9088 1258.47 79.8896L1268.56 75.7922C1266.13 69.8066 1265.53 63.2345 1266.83 56.907C1268.14 50.5795 1271.29 44.7807 1275.89 40.244C1280.49 35.7074 1286.33 32.6365 1292.67 31.4198C1299.02 30.203 1305.58 30.8951 1311.53 33.4084C1317.48 35.9218 1322.56 40.1435 1326.11 45.5398C1329.66 50.9361 1331.53 57.2645 1331.49 63.7248C1331.44 70.1852 1329.49 76.4872 1325.86 81.8341C1322.23 87.1809 1317.1 91.3324 1311.12 93.7636L1315.22 103.851Z" fill="black"/>
<path d="M1349.89 78.7562C1352.91 86.8244 1358.25 93.8166 1365.24 98.8487C1372.23 103.881 1380.56 106.727 1389.17 107.027C1397.77 107.326 1406.28 105.067 1413.6 100.533C1420.93 95.9999 1426.74 89.3963 1430.31 81.5576C1433.89 73.7189 1435.05 64.9972 1433.67 56.4953C1432.28 47.9935 1428.41 40.0934 1422.53 33.7941C1416.66 27.4947 1409.04 23.0791 1400.66 21.1055C1392.28 19.1319 1383.49 19.689 1375.43 22.7064L1379.24 32.9048C1385.29 30.6418 1391.88 30.2239 1398.17 31.7041C1404.45 33.1843 1410.16 36.496 1414.57 41.2206C1418.98 45.9451 1421.88 51.8701 1422.92 58.2465C1423.96 64.6229 1423.08 71.1642 1420.41 77.0432C1417.73 82.9222 1413.37 87.8749 1407.87 91.275C1402.38 94.6751 1396 96.3698 1389.54 96.1449C1383.09 95.92 1376.84 93.7856 1371.6 90.0115C1366.36 86.2375 1362.35 80.9933 1360.09 74.9421L1349.89 78.7562Z" fill="black"/>
<path d="M1467.68 22.558C1459.59 25.4957 1452.54 30.7686 1447.44 37.7099C1442.34 44.6513 1439.41 52.9493 1439.03 61.5547C1438.64 70.1601 1440.82 78.6863 1445.28 86.0551C1449.74 93.424 1456.29 99.3045 1464.09 102.953C1471.89 106.602 1480.6 107.854 1489.12 106.553C1497.63 105.252 1505.57 101.454 1511.93 95.6414C1518.28 89.8285 1522.78 82.2611 1524.83 73.8961C1526.89 65.5312 1526.42 56.7443 1523.48 48.6468L1513.24 52.3601C1515.45 58.4332 1515.8 65.0234 1514.26 71.2971C1512.72 77.5708 1509.35 83.2464 1504.58 87.606C1499.81 91.9657 1493.86 94.8136 1487.47 95.7897C1481.09 96.7658 1474.55 95.8263 1468.7 93.0898C1462.85 90.3534 1457.94 85.943 1454.59 80.4163C1451.25 74.8897 1449.62 68.495 1449.91 62.041C1450.19 55.587 1452.39 49.3635 1456.22 44.1574C1460.04 38.9514 1465.32 34.9967 1471.4 32.7935L1467.68 22.558Z" fill="black"/>
<path fill-rule="evenodd" clip-rule="evenodd" d="M1568.51 19.947H1579.69V53.8987L1611.72 35.408L1617.29 45.057L1585.06 63.6627L1617.14 82.1853L1611.55 91.8697L1579.69 73.4739V107.053H1568.51V73.2202L1536.56 91.6662L1530.99 82.0173L1562.74 63.6863L1530.84 45.2703L1536.43 35.5859L1568.51 54.1051V19.947Z" fill="black"/>
<path d="M1629.73 88.2098C1634.61 95.3032 1641.49 100.788 1649.5 103.971C1657.5 107.154 1666.27 107.891 1674.7 106.091C1683.12 104.29 1690.82 100.032 1696.82 93.855C1702.83 87.6779 1706.86 79.8593 1708.42 71.3877C1709.98 62.9162 1709 54.1723 1705.59 46.2618C1702.18 38.3512 1696.5 31.6294 1689.27 26.9462C1682.04 22.2629 1673.58 19.8287 1664.97 19.9514C1656.36 20.074 1647.97 22.748 1640.88 27.6351L1647.06 36.6013C1652.38 32.936 1658.67 30.9305 1665.13 30.8385C1671.59 30.7466 1677.93 32.5722 1683.35 36.0846C1688.77 39.597 1693.03 44.6384 1695.59 50.5713C1698.15 56.5042 1698.89 63.0622 1697.72 69.4158C1696.55 75.7694 1693.52 81.6334 1689.02 86.2663C1684.51 90.8991 1678.74 94.0927 1672.42 95.4431C1666.1 96.7936 1659.53 96.2403 1653.52 93.8532C1647.52 91.4661 1642.36 87.3524 1638.69 82.0324L1629.73 88.2098Z" fill="black"/>
<path d="M1773.84 103.851C1781.82 100.61 1788.66 95.0746 1793.49 87.9454C1798.33 80.8163 1800.94 72.4135 1801 63.7998C1801.06 55.186 1798.56 46.7481 1793.83 39.5531C1789.09 32.358 1782.33 26.7291 1774.39 23.3779C1766.46 20.0268 1757.7 19.104 1749.24 20.7263C1740.78 22.3486 1733 26.4432 1726.86 32.4921C1720.73 38.541 1716.53 46.2727 1714.79 54.7093C1713.05 63.146 1713.85 71.9088 1717.1 79.8896L1727.18 75.7922C1724.75 69.8066 1724.15 63.2345 1725.45 56.907C1726.76 50.5795 1729.91 44.7807 1734.51 40.244C1739.11 35.7074 1744.95 32.6365 1751.3 31.4198C1757.64 30.203 1764.2 30.8951 1770.15 33.4084C1776.11 35.9218 1781.18 40.1435 1784.73 45.5398C1788.28 50.9361 1790.16 57.2645 1790.11 63.7248C1790.07 70.1852 1788.11 76.4872 1784.48 81.8341C1780.86 87.1809 1775.72 91.3324 1769.74 93.7636L1773.84 103.851Z" fill="black"/>
</svg>
