<svg width="1800" height="127" viewBox="0 0 1800 127" fill="none" xmlns="http://www.w3.org/2000/svg">
<path d="M21.0201 26.2289C13.6486 30.6855 7.76416 37.2279 4.11091 45.0288C0.457647 52.8297 -0.80033 61.5387 0.496053 70.0546C1.79244 78.5705 5.58495 86.5107 11.394 92.8711C17.2031 99.2316 24.7678 103.727 33.1315 105.788C41.4953 107.849 50.2824 107.384 58.3817 104.451C66.481 101.518 73.5288 96.2493 78.6337 89.311C83.7386 82.3727 86.6715 74.0764 87.0614 65.4713C87.4513 56.8661 85.2807 48.3386 80.8241 40.9671L71.5063 46.6003C74.8487 52.1289 76.4767 58.5246 76.1843 64.9784C75.8919 71.4323 73.6922 77.6545 69.8635 82.8582C66.0348 88.062 60.749 92.0135 54.6745 94.2131C48.6 96.4128 42.0097 96.7617 35.7369 95.2158C29.4641 93.6699 23.7906 90.2987 19.4338 85.5283C15.077 80.758 12.2326 74.8028 11.2603 68.4159C10.288 62.029 11.2315 55.4973 13.9714 49.6466C16.7114 43.7959 21.1247 38.8891 26.6534 35.5467L21.0201 26.2289Z" fill="black"/>
<path fill-rule="evenodd" clip-rule="evenodd" d="M129.482 19.947H140.664V53.8987L172.691 35.408L178.262 45.057L146.036 63.6627L178.118 82.1853L172.527 91.8697L140.664 73.4739V107.053H129.482V73.2202L97.5324 91.6662L91.9616 82.0173L123.712 63.6863L91.8145 45.2703L97.4057 35.5859L129.482 54.1051V19.947Z" fill="black"/>
<path d="M185.73 78.7562C188.748 86.8244 194.09 93.8166 201.081 98.8487C208.072 103.881 216.399 106.727 225.008 107.027C233.616 107.326 242.121 105.067 249.445 100.533C256.77 95.9999 262.585 89.3963 266.157 81.5576C269.728 73.7189 270.895 64.9972 269.51 56.4953C268.124 47.9935 264.249 40.0934 258.374 33.7941C252.498 27.4947 244.887 23.0791 236.502 21.1055C228.117 19.1319 219.336 19.689 211.268 22.7064L215.082 32.9048C221.133 30.6418 227.719 30.2239 234.008 31.7041C240.296 33.1843 246.005 36.496 250.411 41.2206C254.818 45.9451 257.724 51.8701 258.763 58.2465C259.802 64.6229 258.927 71.1642 256.249 77.0432C253.57 82.9222 249.208 87.8749 243.715 91.275C238.221 94.6751 231.843 96.3698 225.387 96.1449C218.93 95.92 212.685 93.7856 207.442 90.0115C202.198 86.2375 198.192 80.9933 195.929 74.9421L185.73 78.7562Z" fill="black"/>
<path d="M334.728 103.851C342.709 100.61 349.549 95.0746 354.384 87.9454C359.219 80.8163 361.831 72.4135 361.89 63.7998C361.949 55.186 359.453 46.7481 354.717 39.5531C349.981 32.358 343.217 26.7291 335.282 23.3779C327.346 20.0268 318.595 19.104 310.136 20.7263C301.676 22.3486 293.887 26.4432 287.754 32.4921C281.621 38.541 277.42 46.2727 275.682 54.7093C273.943 63.146 274.745 71.9088 277.987 79.8896L288.075 75.7922C285.643 69.8066 285.042 63.2345 286.346 56.907C287.65 50.5795 290.801 44.7807 295.4 40.244C300 35.7074 305.841 32.6365 312.186 31.4198C318.531 30.203 325.094 30.8951 331.046 33.4084C336.997 35.9218 342.07 40.1435 345.622 45.5398C349.174 50.9361 351.047 57.2645 351.002 63.7248C350.958 70.1852 348.998 76.4872 345.372 81.8341C341.746 87.1809 336.616 91.3324 330.63 93.7636L334.728 103.851Z" fill="black"/>
<path d="M395.299 22.558C387.202 25.4957 380.157 30.7686 375.056 37.7099C369.956 44.6513 367.028 52.9493 366.643 61.5547C366.258 70.1601 368.434 78.6863 372.895 86.0551C377.356 93.424 383.902 99.3045 391.705 102.953C399.508 106.602 408.218 107.854 416.733 106.553C425.248 105.252 433.186 101.454 439.543 95.6414C445.9 89.8285 450.39 82.2611 452.447 73.8961C454.503 65.5312 454.032 56.7443 451.095 48.6468L440.859 52.3601C443.062 58.4332 443.415 65.0234 441.873 71.2971C440.331 77.5708 436.963 83.2464 432.195 87.606C427.428 91.9657 421.474 94.8136 415.088 95.7897C408.702 96.7658 402.169 95.8263 396.317 93.0898C390.465 90.3534 385.555 85.943 382.209 80.4163C378.864 74.8897 377.232 68.495 377.52 62.041C377.809 55.587 380.005 49.3635 383.831 44.1574C387.656 38.9514 392.94 34.9967 399.013 32.7935L395.299 22.558Z" fill="black"/>
<path fill-rule="evenodd" clip-rule="evenodd" d="M496.082 19.947H507.264V53.8987L539.291 35.408L544.862 45.057L512.636 63.6627L544.718 82.1853L539.127 91.8697L507.264 73.4739V107.053H496.082V73.2202L464.132 91.6662L458.561 82.0173L490.311 63.6863L458.414 45.2703L464.005 35.5859L496.082 54.1051V19.947Z" fill="black"/>
<path d="M609.512 103.851C617.493 100.61 624.334 95.0746 629.168 87.9454C634.003 80.8163 636.616 72.4135 636.675 63.7998C636.734 55.186 634.238 46.7481 629.502 39.5531C624.765 32.358 618.002 26.7291 610.066 23.3779C602.131 20.0268 593.38 19.104 584.92 20.7263C576.46 22.3486 568.672 26.4432 562.539 32.4921C556.406 38.541 552.205 46.2727 550.466 54.7093C548.728 63.146 549.53 71.9088 552.771 79.8896L562.859 75.7922C560.428 69.8066 559.826 63.2345 561.13 56.907C562.434 50.5795 565.585 44.7807 570.185 40.244C574.785 35.7074 580.626 32.6365 586.971 31.4198C593.316 30.203 599.879 30.8951 605.831 33.4084C611.782 35.9218 616.855 40.1435 620.407 45.5398C623.959 50.9361 625.831 57.2645 625.787 63.7248C625.742 70.1852 623.783 76.4872 620.157 81.8341C616.531 87.1809 611.401 91.3324 605.415 93.7636L609.512 103.851Z" fill="black"/>
<path d="M644.39 79.4001C647.535 87.4195 652.987 94.3263 660.057 99.2471C667.128 104.168 675.498 106.882 684.11 107.045C692.723 107.209 701.19 104.815 708.442 100.166C715.694 95.517 721.404 88.8221 724.851 80.9279C728.298 73.0336 729.327 64.2945 727.807 55.8157C726.287 47.3368 722.287 39.4991 716.313 33.2935C710.339 27.088 702.658 22.7934 694.243 20.9528C685.828 19.1122 677.057 19.8083 669.037 22.9531L673.012 33.0898C679.027 30.7312 685.606 30.2092 691.917 31.5896C698.228 32.9701 703.988 36.191 708.469 40.8452C712.95 45.4993 715.95 51.3776 717.09 57.7367C718.229 64.0959 717.458 70.6502 714.873 76.5709C712.288 82.4916 708.005 87.5127 702.566 90.9994C697.127 94.486 690.776 96.2815 684.317 96.1588C677.858 96.0362 671.58 94.0009 666.277 90.3103C660.975 86.6197 656.886 81.4396 654.527 75.4251L644.39 79.4001Z" fill="black"/>
<path d="M759.72 23.4151C751.792 26.7835 745.041 32.4273 740.321 39.6327C735.6 46.838 733.122 55.2814 733.201 63.895C733.279 72.5086 735.909 80.9056 740.76 88.0242C745.61 95.1427 752.463 100.663 760.45 103.887C768.438 107.111 777.203 107.894 785.636 106.137C794.068 104.38 801.791 100.162 807.826 94.016C813.862 87.87 817.939 80.0723 819.543 71.6089C821.147 63.1456 820.205 54.3967 816.837 46.4687L806.815 50.7265C809.342 56.6725 810.048 63.2342 808.845 69.5817C807.642 75.9292 804.584 81.7775 800.058 86.387C795.531 90.9965 789.739 94.1602 783.415 95.478C777.09 96.7958 770.517 96.2085 764.526 93.7904C758.535 91.3723 753.396 87.232 749.758 81.8931C746.12 76.5542 744.147 70.2565 744.088 63.7962C744.03 57.336 745.888 51.0035 749.429 45.5995C752.969 40.1955 758.032 35.9626 763.978 33.4363L759.72 23.4151Z" fill="black"/>
<path fill-rule="evenodd" clip-rule="evenodd" d="M862.681 19.947H873.863V53.8987L905.89 35.408L911.461 45.057L879.235 63.6627L911.317 82.1853L905.726 91.8697L873.863 73.4739V107.053H862.681V73.2202L830.731 91.6662L825.16 82.0173L856.911 63.6863L825.013 45.2703L830.604 35.5859L862.681 54.1051V19.947Z" fill="black"/>
<path d="M1007.52 23.98V86.42H1019V116.8H1008.08V96.5H949.981V116.8H939.061V86.42H941.581C949.421 86.42 951.381 84.04 952.221 71.72L955.161 23.98H1007.52ZM955.861 86.42H996.601V34.06H964.821L962.301 72.56C961.881 79.98 960.201 83.9 955.861 86.42ZM1093.78 59.68C1093.78 62.06 1093.64 63.46 1093.36 65.14H1031.76C1033.72 79.56 1044.36 87.68 1057.66 87.68C1065.92 87.68 1074.32 84.74 1079.36 76.06L1089.16 81.66C1082.86 91.88 1071.66 97.62 1058.22 97.62C1036.94 97.62 1020.7 83.48 1020.7 60.24C1020.7 37.42 1037.36 22.72 1057.52 22.72C1078.52 22.72 1093.78 37.98 1093.78 59.68ZM1057.8 32.66C1044.08 32.66 1033.72 40.92 1031.76 55.34H1082.44C1081.32 41.62 1071.24 32.66 1057.8 32.66ZM1107.57 79.42L1111.49 23.98H1164.69V96.5H1153.77V34.06H1121.43L1118.49 77.46C1117.51 91.6 1111.63 97.62 1101.55 97.62C1096.51 97.62 1092.31 95.38 1089.79 92.3L1095.81 85.3C1097.21 86.7 1098.75 87.54 1100.99 87.54C1104.91 87.54 1107.15 85.02 1107.57 79.42ZM1191.36 81.1L1234.06 23.98H1244.42V96.5H1233.78V39.38L1191.08 96.5H1180.72V23.98H1191.36V81.1ZM1301.91 84.32L1332.85 23.98H1343.21V96.5H1332.57V44.14L1305.55 96.5H1297.99L1270.97 44.56V96.5H1260.33V23.98H1270.69L1301.91 84.32ZM1391.83 97.62C1370.69 97.62 1354.31 83.06 1354.31 60.24C1354.31 37.42 1370.69 22.72 1391.55 22.72C1406.39 22.72 1416.19 29.16 1422.07 38.96L1413.11 44.56C1407.65 36.44 1401.21 32.66 1391.55 32.66C1376.15 32.66 1365.23 42.88 1365.23 60.24C1365.23 77.6 1376.15 87.68 1391.83 87.68C1402.75 87.68 1411.29 82.78 1415.07 74.8L1423.89 80.54C1418.57 90.34 1407.23 97.62 1391.83 97.62ZM1457.76 23.98H1488.84V96.5H1477.92V71.72H1464.34L1438.72 96.5H1423.74L1450.76 71.16C1438.44 68.92 1430.74 60.66 1430.74 47.78C1430.74 32.52 1441.52 23.98 1457.76 23.98ZM1457.76 61.92H1477.92V33.64H1457.76C1447.4 33.64 1441.66 38.4 1441.66 47.78C1441.66 57.02 1447.4 61.92 1457.76 61.92Z" fill="black"/>
<path fill-rule="evenodd" clip-rule="evenodd" d="M1567.33 19.947L1578.51 19.947V53.8987L1610.54 35.408L1616.11 45.057L1583.88 63.6627L1615.96 82.1853L1610.37 91.8697L1578.51 73.4739V107.053H1567.33V73.2202L1535.38 91.6662L1529.81 82.0173L1561.56 63.6863L1529.66 45.2703L1535.25 35.5859L1567.33 54.1051V19.947Z" fill="black"/>
<path d="M1641.84 26.2289C1634.47 30.6855 1628.58 37.2279 1624.93 45.0288C1621.27 52.8297 1620.02 61.5387 1621.31 70.0546C1622.61 78.5705 1626.4 86.5107 1632.21 92.8711C1638.02 99.2316 1645.58 103.727 1653.95 105.788C1662.31 107.849 1671.1 107.384 1679.2 104.451C1687.3 101.518 1694.35 96.2493 1699.45 89.311C1704.56 82.3727 1707.49 74.0764 1707.88 65.4713C1708.27 56.8661 1706.1 48.3386 1701.64 40.9671L1692.32 46.6003C1695.67 52.1289 1697.29 58.5246 1697 64.9784C1696.71 71.4323 1694.51 77.6545 1690.68 82.8582C1686.85 88.062 1681.57 92.0135 1675.49 94.2131C1669.42 96.4128 1662.83 96.7617 1656.55 95.2158C1650.28 93.6699 1644.61 90.2987 1640.25 85.5283C1635.89 80.758 1633.05 74.8028 1632.08 68.4159C1631.1 62.029 1632.05 55.4973 1634.79 49.6466C1637.53 43.7959 1641.94 38.8891 1647.47 35.5467L1641.84 26.2289Z" fill="black"/>
<path d="M1772.57 103.851C1780.55 100.61 1787.4 95.0746 1792.23 87.9454C1797.06 80.8163 1799.68 72.4135 1799.74 63.7998C1799.8 55.186 1797.3 46.7481 1792.56 39.5531C1787.83 32.358 1781.06 26.7291 1773.13 23.3779C1765.19 20.0268 1756.44 19.104 1747.98 20.7263C1739.52 22.3486 1731.73 26.4432 1725.6 32.4921C1719.47 38.541 1715.27 46.2727 1713.53 54.7093C1711.79 63.146 1712.59 71.9088 1715.83 79.8896L1725.92 75.7922C1723.49 69.8066 1722.89 63.2345 1724.19 56.907C1725.5 50.5795 1728.65 44.7807 1733.25 40.244C1737.85 35.7074 1743.69 32.6365 1750.03 31.4198C1756.38 30.203 1762.94 30.8951 1768.89 33.4084C1774.84 35.9218 1779.92 40.1435 1783.47 45.5398C1787.02 50.9361 1788.89 57.2645 1788.85 63.7248C1788.8 70.1852 1786.84 76.4872 1783.22 81.8341C1779.59 87.1809 1774.46 91.3324 1768.48 93.7636L1772.57 103.851Z" fill="black"/>
</svg>
