<svg width="3570" height="97" viewBox="0 0 3570 97" fill="none" xmlns="http://www.w3.org/2000/svg">
<path d="M21.0201 6.28185C13.6486 10.7384 7.76416 17.2808 4.11091 25.0818C0.457647 32.8827 -0.80033 41.5917 0.496053 50.1076C1.79244 58.6234 5.58495 66.5636 11.394 72.9241C17.2031 79.2845 24.7678 83.7796 33.1315 85.8407C41.4953 87.9019 50.2824 87.4367 58.3817 84.5038C66.481 81.571 73.5288 76.3023 78.6337 69.364C83.7386 62.4257 86.6715 54.1294 87.0614 45.5242C87.4513 36.9191 85.2807 28.3916 80.8241 21.0201L71.5063 26.6533C74.8487 32.1819 76.4767 38.5776 76.1843 45.0314C75.8919 51.4853 73.6922 57.7075 69.8635 62.9112C66.0348 68.115 60.749 72.0665 54.6745 74.2661C48.6 76.4657 42.0097 76.8147 35.7369 75.2688C29.4641 73.7229 23.7906 70.3516 19.4338 65.5813C15.077 60.811 12.2326 54.8558 11.2603 48.4689C10.288 42.082 11.2315 35.5502 13.9714 29.6996C16.7114 23.8489 21.1247 18.9421 26.6534 15.5996L21.0201 6.28185Z" fill="black"/>
<path fill-rule="evenodd" clip-rule="evenodd" d="M129.482 0L140.664 0V33.9517L172.691 15.461L178.262 25.1099L146.036 43.7156L178.118 62.2383L172.527 71.9226L140.664 53.5268V87.106H129.482V53.2732L97.5324 71.7192L91.9616 62.0703L123.712 43.7393L91.8145 25.3233L97.4057 15.6389L129.482 34.1581V0Z" fill="black"/>
<path d="M185.73 58.8092C188.748 66.8774 194.09 73.8697 201.081 78.9018C208.072 83.9338 216.399 86.7798 225.008 87.0796C233.616 87.3795 242.121 85.1198 249.445 80.5864C256.77 76.0529 262.585 69.4493 266.157 61.6106C269.728 53.7719 270.895 45.0502 269.51 36.5484C268.124 28.0465 264.249 20.1465 258.374 13.8471C252.498 7.54778 244.887 3.13212 236.502 1.15854C228.117 -0.815048 219.336 -0.257919 211.268 2.75948L215.082 12.9579C221.133 10.6948 227.719 10.277 234.008 11.7572C240.296 13.2373 246.005 16.5491 250.411 21.2736C254.818 25.9981 257.724 31.9232 258.763 38.2995C259.802 44.6759 258.927 51.2172 256.249 57.0962C253.57 62.9753 249.208 67.928 243.715 71.328C238.221 74.7281 231.843 76.4229 225.387 76.198C218.93 75.9731 212.685 73.8386 207.442 70.0646C202.198 66.2905 198.192 61.0463 195.929 54.9952L185.73 58.8092Z" fill="black"/>
<path d="M334.728 83.9045C342.709 80.663 349.549 75.1276 354.384 67.9985C359.219 60.8693 361.831 52.4666 361.89 43.8528C361.949 35.2391 359.453 26.8011 354.717 19.6061C349.981 12.4111 343.217 6.7821 335.282 3.43097C327.346 0.0798416 318.595 -0.842918 310.136 0.779388C301.676 2.40169 293.887 6.49619 287.754 12.5451C281.621 18.594 277.42 26.3257 275.682 34.7624C273.943 43.1991 274.745 51.9618 277.987 59.9426L288.075 55.8452C285.643 49.8596 285.042 43.2875 286.346 36.96C287.65 30.6325 290.801 24.8338 295.4 20.2971C300 15.7604 305.841 12.6895 312.186 11.4728C318.531 10.2561 325.094 10.9481 331.046 13.4615C336.997 15.9748 342.07 20.1966 345.622 25.5928C349.174 30.9891 351.047 37.3175 351.002 43.7779C350.958 50.2382 348.998 56.5402 345.372 61.8871C341.746 67.234 336.616 71.3855 330.63 73.8166L334.728 83.9045Z" fill="black"/>
<path d="M395.299 2.61101C387.202 5.54869 380.157 10.8216 375.056 17.763C369.956 24.7043 367.028 33.0024 366.643 41.6077C366.258 50.2131 368.434 58.7393 372.895 66.1082C377.356 73.477 383.902 79.3576 391.705 83.0062C399.508 86.6548 408.218 87.9075 416.733 86.606C425.248 85.3046 433.186 81.5073 439.543 75.6944C445.9 69.8815 450.39 62.3141 452.447 53.9492C454.503 45.5842 454.032 36.7974 451.095 28.6998L440.859 32.4131C443.062 38.4863 443.415 45.0764 441.873 51.3501C440.331 57.6239 436.963 63.2994 432.195 67.6591C427.428 72.0187 421.474 74.8667 415.088 75.8428C408.702 76.8189 402.169 75.8793 396.317 73.1429C390.465 70.4064 385.555 65.996 382.209 60.4694C378.864 54.9427 377.232 48.5481 377.52 42.0941C377.809 35.64 380.005 29.4165 383.831 24.2105C387.656 19.0045 392.94 15.0498 399.013 12.8465L395.299 2.61101Z" fill="black"/>
<path fill-rule="evenodd" clip-rule="evenodd" d="M496.082 -6.10352e-05L507.264 -6.10352e-05V33.9516L539.291 15.4609L544.862 25.1099L512.636 43.7156L544.718 62.2382L539.127 71.9226L507.264 53.5268V87.1059H496.082V53.2731L464.132 71.7191L458.561 62.0702L490.311 43.7392L458.414 25.3232L464.005 15.6389L496.082 34.1581V-6.10352e-05Z" fill="black"/>
<path d="M609.512 83.9045C617.493 80.6629 624.334 75.1275 629.168 67.9984C634.003 60.8693 636.616 52.4665 636.675 43.8528C636.734 35.239 634.238 26.8011 629.502 19.6061C624.765 12.411 618.002 6.78204 610.066 3.43091C602.131 0.0797806 593.38 -0.842979 584.92 0.779327C576.46 2.40163 568.672 6.49613 562.539 12.5451C556.406 18.594 552.205 26.3256 550.466 34.7623C548.728 43.199 549.53 51.9618 552.771 59.9426L562.859 55.8452C560.428 49.8596 559.826 43.2875 561.13 36.96C562.434 30.6325 565.585 24.8337 570.185 20.297C574.785 15.7603 580.626 12.6895 586.971 11.4727C593.316 10.256 599.879 10.9481 605.831 13.4614C611.782 15.9748 616.855 20.1965 620.407 25.5928C623.959 30.989 625.831 37.3175 625.787 43.7778C625.742 50.2381 623.783 56.5402 620.157 61.887C616.531 67.2339 611.401 71.3854 605.415 73.8166L609.512 83.9045Z" fill="black"/>
<path d="M644.39 59.4531C647.535 67.4725 652.987 74.3793 660.057 79.3001C667.128 84.2208 675.498 86.9346 684.11 87.0981C692.723 87.2616 701.19 84.8676 708.442 80.2188C715.694 75.57 721.404 68.8751 724.851 60.9809C728.298 53.0866 729.327 44.3475 727.807 35.8687C726.287 27.3898 722.287 19.5521 716.313 13.3465C710.339 7.141 702.658 2.8464 694.243 1.00581C685.828 -0.834778 677.057 -0.138687 669.037 3.00607L673.012 13.1428C679.027 10.7842 685.606 10.2622 691.917 11.6426C698.228 13.023 703.988 16.244 708.469 20.8981C712.95 25.5523 715.95 31.4306 717.09 37.7897C718.229 44.1489 717.458 50.7032 714.873 56.6239C712.288 62.5446 708.005 67.5657 702.566 71.0523C697.127 74.539 690.776 76.3345 684.317 76.2118C677.858 76.0892 671.58 74.0539 666.277 70.3633C660.975 66.6727 656.886 61.4926 654.527 55.478L644.39 59.4531Z" fill="black"/>
<path d="M759.72 3.4681C751.792 6.83657 745.041 12.4803 740.321 19.6857C735.6 26.8911 733.122 35.3344 733.201 43.948C733.279 52.5617 735.909 60.9587 740.76 68.0772C745.61 75.1958 752.463 80.7162 760.45 83.9403C768.438 87.1644 777.203 87.9474 785.636 86.1903C794.068 84.4333 801.791 80.215 807.826 74.069C813.862 67.923 817.939 60.1253 819.543 51.662C821.147 43.1986 820.205 34.4497 816.837 26.5217L806.815 30.7795C809.342 36.7256 810.048 43.2872 808.845 49.6347C807.642 55.9823 804.584 61.8305 800.058 66.44C795.531 71.0495 789.739 74.2132 783.415 75.531C777.09 76.8488 770.517 76.2615 764.526 73.8434C758.535 71.4254 753.396 67.2851 749.758 61.9462C746.12 56.6073 744.147 50.3095 744.088 43.8493C744.03 37.3891 745.888 31.0566 749.429 25.6525C752.969 20.2485 758.032 16.0157 763.978 13.4893L759.72 3.4681Z" fill="black"/>
<path fill-rule="evenodd" clip-rule="evenodd" d="M862.681 0L873.863 0V33.9517L905.89 15.461L911.461 25.1099L879.235 43.7156L911.317 62.2383L905.726 71.9226L873.863 53.5268V87.106H862.681V53.2732L830.731 71.7192L825.16 62.0703L856.911 43.7393L825.013 25.3233L830.604 15.6389L862.681 34.1581V0Z" fill="black"/>
<path d="M998.754 4.03298V66.473H1010.23V96.853H999.314V76.553H941.214V96.853H930.294V66.473H932.814C940.654 66.473 942.614 64.093 943.454 51.773L946.394 4.03298H998.754ZM947.094 66.473H987.834V14.113H956.054L953.534 52.613C953.114 60.033 951.434 63.953 947.094 66.473ZM1085.02 39.733C1085.02 42.113 1084.88 43.513 1084.6 45.193H1023C1024.96 59.613 1035.6 67.733 1048.9 67.733C1057.16 67.733 1065.56 64.793 1070.6 56.113L1080.4 61.713C1074.1 71.933 1062.9 77.673 1049.46 77.673C1028.18 77.673 1011.94 63.533 1011.94 40.293C1011.94 17.473 1028.6 2.77298 1048.76 2.77298C1069.76 2.77298 1085.02 18.033 1085.02 39.733ZM1049.04 12.713C1035.32 12.713 1024.96 20.973 1023 35.393H1073.68C1072.56 21.673 1062.48 12.713 1049.04 12.713ZM1098.81 59.473L1102.73 4.03298H1155.93V76.553H1145.01V14.113H1112.67L1109.73 57.513C1108.75 71.653 1102.87 77.673 1092.79 77.673C1087.75 77.673 1083.55 75.433 1081.03 72.353L1087.05 65.353C1088.45 66.753 1089.99 67.593 1092.23 67.593C1096.15 67.593 1098.39 65.073 1098.81 59.473ZM1182.59 61.153L1225.29 4.03298H1235.65V76.553H1225.01V19.433L1182.31 76.553H1171.95V4.03298H1182.59V61.153ZM1293.14 64.373L1324.08 4.03298H1334.44V76.553H1323.8V24.193L1296.78 76.553H1289.22L1262.2 24.613V76.553H1251.56V4.03298H1261.92L1293.14 64.373ZM1383.07 77.673C1361.93 77.673 1345.55 63.113 1345.55 40.293C1345.55 17.473 1361.93 2.77298 1382.79 2.77298C1397.63 2.77298 1407.43 9.21297 1413.31 19.013L1404.35 24.613C1398.89 16.493 1392.45 12.713 1382.79 12.713C1367.39 12.713 1356.47 22.933 1356.47 40.293C1356.47 57.653 1367.39 67.733 1383.07 67.733C1393.99 67.733 1402.53 62.833 1406.31 54.853L1415.13 60.593C1409.81 70.393 1398.47 77.673 1383.07 77.673ZM1448.99 4.03298H1480.07V76.553H1469.15V51.773H1455.57L1429.95 76.553H1414.97L1441.99 51.213C1429.67 48.973 1421.97 40.713 1421.97 27.833C1421.97 12.573 1432.75 4.03298 1448.99 4.03298ZM1448.99 41.973H1469.15V13.693H1448.99C1438.63 13.693 1432.89 18.453 1432.89 27.833C1432.89 37.073 1438.63 41.973 1448.99 41.973Z" fill="black"/>
<path fill-rule="evenodd" clip-rule="evenodd" d="M1549.8 0L1560.98 0V33.9517L1593.01 15.461L1598.58 25.1099L1566.35 43.7156L1598.43 62.2383L1592.84 71.9226L1560.98 53.5268V87.106H1549.8V53.2732L1517.85 71.7192L1512.28 62.0703L1544.03 43.7393L1512.13 25.3233L1517.72 15.6389L1549.8 34.1581V0Z" fill="black"/>
<path d="M1624.3 6.28185C1616.93 10.7384 1611.05 17.2808 1607.4 25.0818C1603.74 32.8827 1602.48 41.5917 1603.78 50.1076C1605.08 58.6234 1608.87 66.5636 1614.68 72.9241C1620.49 79.2845 1628.05 83.7796 1636.42 85.8407C1644.78 87.9019 1653.57 87.4367 1661.67 84.5038C1669.77 81.571 1676.81 76.3023 1681.92 69.364C1687.02 62.4257 1689.96 54.1294 1690.35 45.5242C1690.74 36.9191 1688.57 28.3916 1684.11 21.0201L1674.79 26.6533C1678.13 32.1819 1679.76 38.5776 1679.47 45.0314C1679.18 51.4853 1676.98 57.7075 1673.15 62.9112C1669.32 68.115 1664.03 72.0665 1657.96 74.2661C1651.88 76.4657 1645.29 76.8147 1639.02 75.2688C1632.75 73.7229 1627.08 70.3516 1622.72 65.5813C1618.36 60.811 1615.52 54.8558 1614.54 48.4689C1613.57 42.082 1614.52 35.5502 1617.26 29.6996C1620 23.8489 1624.41 18.9421 1629.94 15.5996L1624.3 6.28185Z" fill="black"/>
<path d="M1755.04 83.9045C1763.02 80.663 1769.86 75.1276 1774.7 67.9985C1779.53 60.8693 1782.14 52.4666 1782.2 43.8528C1782.26 35.2391 1779.77 26.8011 1775.03 19.6061C1770.29 12.4111 1763.53 6.7821 1755.6 3.43097C1747.66 0.0798416 1738.91 -0.842918 1730.45 0.779388C1721.99 2.40169 1714.2 6.49619 1708.07 12.5451C1701.94 18.594 1697.73 26.3257 1696 34.7624C1694.26 43.1991 1695.06 51.9618 1698.3 59.9426L1708.39 55.8452C1705.96 49.8596 1705.36 43.2875 1706.66 36.96C1707.96 30.6325 1711.11 24.8338 1715.71 20.2971C1720.31 15.7604 1726.16 12.6895 1732.5 11.4728C1738.85 10.2561 1745.41 10.9481 1751.36 13.4615C1757.31 15.9748 1762.38 20.1966 1765.94 25.5928C1769.49 30.9891 1771.36 37.3175 1771.32 43.7779C1771.27 50.2382 1769.31 56.5402 1765.69 61.8871C1762.06 67.234 1756.93 71.3855 1750.94 73.8166L1755.04 83.9045Z" fill="black"/>
<path d="M1789.67 58.8092C1792.69 66.8774 1798.03 73.8697 1805.02 78.9018C1812.02 83.9338 1820.34 86.7798 1828.95 87.0796C1837.56 87.3795 1846.06 85.1198 1853.39 80.5864C1860.71 76.0529 1866.53 69.4493 1870.1 61.6106C1873.67 53.7719 1874.84 45.0502 1873.45 36.5484C1872.07 28.0465 1868.19 20.1465 1862.32 13.8471C1856.44 7.54778 1848.83 3.13212 1840.45 1.15854C1832.06 -0.815048 1823.28 -0.257919 1815.21 2.75948L1819.02 12.9579C1825.08 10.6948 1831.66 10.277 1837.95 11.7572C1844.24 13.2373 1849.95 16.5491 1854.35 21.2736C1858.76 25.9981 1861.67 31.9232 1862.71 38.2995C1863.75 44.6759 1862.87 51.2172 1860.19 57.0962C1857.51 62.9753 1853.15 67.928 1847.66 71.328C1842.16 74.7281 1835.79 76.4229 1829.33 76.198C1822.87 75.9731 1816.63 73.8386 1811.38 70.0646C1806.14 66.2905 1802.13 61.0463 1799.87 54.9952L1789.67 58.8092Z" fill="black"/>
<path d="M1907.43 2.61095C1899.33 5.54863 1892.29 10.8215 1887.18 17.7629C1882.08 24.7043 1879.16 33.0023 1878.77 41.6077C1878.39 50.213 1880.56 58.7393 1885.02 66.1081C1889.48 73.477 1896.03 79.3575 1903.83 83.0061C1911.64 86.6547 1920.35 87.9075 1928.86 86.606C1937.38 85.3045 1945.31 81.5072 1951.67 75.6944C1958.03 69.8815 1962.52 62.3141 1964.58 53.9491C1966.63 45.5842 1966.16 36.7973 1963.22 28.6997L1952.99 32.413C1955.19 38.4862 1955.54 45.0764 1954 51.3501C1952.46 57.6238 1949.09 63.2993 1944.32 67.659C1939.56 72.0187 1933.6 74.8666 1927.22 75.8427C1920.83 76.8188 1914.3 75.8793 1908.45 73.1428C1902.59 70.4064 1897.68 65.996 1894.34 60.4693C1890.99 54.9427 1889.36 48.548 1889.65 42.094C1889.94 35.64 1892.13 29.4164 1895.96 24.2104C1899.78 19.0044 1905.07 15.0497 1911.14 12.8465L1907.43 2.61095Z" fill="black"/>
<path fill-rule="evenodd" clip-rule="evenodd" d="M2008.21 0L2019.39 0V33.9517L2051.42 15.461L2056.99 25.1099L2024.76 43.7156L2056.85 62.2383L2051.25 71.9226L2019.39 53.5268V87.106H2008.21V53.2731L1976.26 71.7192L1970.69 62.0703L2002.44 43.7393L1970.54 25.3233L1976.13 15.6389L2008.21 34.1581V0Z" fill="black"/>
<path d="M2064.7 59.4531C2067.85 67.4725 2073.3 74.3793 2080.37 79.3001C2087.44 84.2209 2095.81 86.9346 2104.42 87.0982C2113.04 87.2617 2121.5 84.8677 2128.76 80.2189C2136.01 75.57 2141.72 68.8752 2145.17 60.9809C2148.61 53.0867 2149.64 44.3476 2148.12 35.8687C2146.6 27.3899 2142.6 19.5521 2136.63 13.3466C2130.65 7.14106 2122.97 2.84646 2114.56 1.00587C2106.14 -0.834717 2097.37 -0.138626 2089.35 3.00613L2093.33 13.1428C2099.34 10.7843 2105.92 10.2622 2112.23 11.6427C2118.54 13.0231 2124.3 16.244 2128.78 20.8982C2133.26 25.5523 2136.26 31.4307 2137.4 37.7898C2138.54 44.1489 2137.77 50.7032 2135.19 56.6239C2132.6 62.5446 2128.32 67.5658 2122.88 71.0524C2117.44 74.539 2111.09 76.3345 2104.63 76.2119C2098.17 76.0892 2091.89 74.0539 2086.59 70.3633C2081.29 66.6728 2077.2 61.4927 2074.84 55.4781L2064.7 59.4531Z" fill="black"/>
<path d="M2180.03 3.4681C2172.11 6.83657 2165.36 12.4803 2160.63 19.6857C2155.91 26.8911 2153.44 35.3344 2153.51 43.948C2153.59 52.5617 2156.22 60.9587 2161.07 68.0772C2165.92 75.1958 2172.78 80.7162 2180.76 83.9403C2188.75 87.1644 2197.52 87.9474 2205.95 86.1903C2214.38 84.4333 2222.1 80.215 2228.14 74.069C2234.18 67.923 2238.25 60.1253 2239.86 51.662C2241.46 43.1986 2240.52 34.4497 2237.15 26.5217L2227.13 30.7795C2229.66 36.7256 2230.36 43.2872 2229.16 49.6347C2227.96 55.9823 2224.9 61.8305 2220.37 66.44C2215.85 71.0495 2210.05 74.2132 2203.73 75.531C2197.4 76.8488 2190.83 76.2615 2184.84 73.8434C2178.85 71.4254 2173.71 67.2851 2170.07 61.9462C2166.43 56.6073 2164.46 50.3095 2164.4 43.8493C2164.34 37.3891 2166.2 31.0566 2169.74 25.6525C2173.28 20.2485 2178.35 16.0157 2184.29 13.4893L2180.03 3.4681Z" fill="black"/>
<path d="M2305.27 83.9045C2313.25 80.663 2320.09 75.1276 2324.93 67.9985C2329.76 60.8693 2332.37 52.4666 2332.43 43.8528C2332.49 35.2391 2330 26.8011 2325.26 19.6061C2320.52 12.4111 2313.76 6.7821 2305.82 3.43097C2297.89 0.0798416 2289.14 -0.842918 2280.68 0.779388C2272.22 2.40169 2264.43 6.49619 2258.3 12.5451C2252.16 18.594 2247.96 26.3257 2246.22 34.7624C2244.48 43.1991 2245.29 51.9618 2248.53 59.9426L2258.62 55.8452C2256.19 49.8596 2255.58 43.2875 2256.89 36.96C2258.19 30.6325 2261.34 24.8338 2265.94 20.2971C2270.54 15.7604 2276.38 12.6895 2282.73 11.4728C2289.07 10.2561 2295.64 10.9481 2301.59 13.4615C2307.54 15.9748 2312.61 20.1966 2316.16 25.5928C2319.72 30.9891 2321.59 37.3175 2321.54 43.7779C2321.5 50.2382 2319.54 56.5402 2315.91 61.8871C2312.29 67.234 2307.16 71.3855 2301.17 73.8166L2305.27 83.9045Z" fill="black"/>
<path d="M2411.49 12.7563C2405.4 6.66533 2397.64 2.51731 2389.19 0.836807C2380.74 -0.843697 2371.99 0.0187988 2364.03 3.31522C2356.07 6.61164 2349.27 12.1939 2344.48 19.3562C2339.7 26.5184 2337.14 34.939 2337.14 43.5529C2337.14 52.1669 2339.7 60.5874 2344.48 67.7497C2349.27 74.9119 2356.07 80.4942 2364.03 83.7907C2371.99 87.0871 2380.74 87.9496 2389.19 86.2691C2397.64 84.5886 2405.4 80.4406 2411.49 74.3496L2403.79 66.6504C2399.22 71.2187 2393.4 74.3297 2387.07 75.5901C2380.73 76.8504 2374.16 76.2036 2368.19 73.7312C2362.23 71.2589 2357.12 67.0722 2353.53 61.7005C2349.95 56.3288 2348.03 50.0134 2348.03 43.5529C2348.03 37.0925 2349.95 30.7771 2353.53 25.4054C2357.12 20.0337 2362.23 15.847 2368.19 13.3746C2374.16 10.9023 2380.73 10.2555 2387.07 11.5158C2393.4 12.7762 2399.22 15.8872 2403.79 20.4555L2411.49 12.7563Z" fill="black"/>
<path fill-rule="evenodd" clip-rule="evenodd" d="M2466.62 0L2477.81 0V33.9517L2509.83 15.461L2515.4 25.1099L2483.18 43.7156L2515.26 62.2383L2509.67 71.9226L2477.81 53.5268V87.106H2466.62V53.2732L2434.67 71.7192L2429.1 62.0703L2460.85 43.7393L2428.96 25.3233L2434.55 15.6389L2466.62 34.1581V0Z" fill="black"/>
<path d="M2602.7 4.03298V66.473H2614.18V96.853H2603.26V76.553H2545.16V96.853H2534.24V66.473H2536.76C2544.6 66.473 2546.56 64.093 2547.4 51.773L2550.34 4.03298H2602.7ZM2551.04 66.473H2591.78V14.113H2560L2557.48 52.613C2557.06 60.033 2555.38 63.953 2551.04 66.473ZM2688.96 39.733C2688.96 42.113 2688.82 43.513 2688.54 45.193H2626.94C2628.9 59.613 2639.54 67.733 2652.84 67.733C2661.1 67.733 2669.5 64.793 2674.54 56.113L2684.34 61.713C2678.04 71.933 2666.84 77.673 2653.4 77.673C2632.12 77.673 2615.88 63.533 2615.88 40.293C2615.88 17.473 2632.54 2.77298 2652.7 2.77298C2673.7 2.77298 2688.96 18.033 2688.96 39.733ZM2652.98 12.713C2639.26 12.713 2628.9 20.973 2626.94 35.393H2677.62C2676.5 21.673 2666.42 12.713 2652.98 12.713ZM2702.75 59.473L2706.67 4.03298H2759.87V76.553H2748.95V14.113H2716.61L2713.67 57.513C2712.69 71.653 2706.81 77.673 2696.73 77.673C2691.69 77.673 2687.49 75.433 2684.97 72.353L2690.99 65.353C2692.39 66.753 2693.93 67.593 2696.17 67.593C2700.09 67.593 2702.33 65.073 2702.75 59.473ZM2786.54 61.153L2829.24 4.03298H2839.6V76.553H2828.96V19.433L2786.26 76.553H2775.9V4.03298H2786.54V61.153ZM2897.09 64.373L2928.03 4.03298H2938.39V76.553H2927.75V24.193L2900.73 76.553H2893.17L2866.15 24.613V76.553H2855.51V4.03298H2865.87L2897.09 64.373ZM2987.01 77.673C2965.87 77.673 2949.49 63.113 2949.49 40.293C2949.49 17.473 2965.87 2.77298 2986.73 2.77298C3001.57 2.77298 3011.37 9.21297 3017.25 19.013L3008.29 24.613C3002.83 16.493 2996.39 12.713 2986.73 12.713C2971.33 12.713 2960.41 22.933 2960.41 40.293C2960.41 57.653 2971.33 67.733 2987.01 67.733C2997.93 67.733 3006.47 62.833 3010.25 54.853L3019.07 60.593C3013.75 70.393 3002.41 77.673 2987.01 77.673ZM3052.94 4.03298H3084.02V76.553H3073.1V51.773H3059.52L3033.9 76.553H3018.92L3045.94 51.213C3033.62 48.973 3025.92 40.713 3025.92 27.833C3025.92 12.573 3036.7 4.03298 3052.94 4.03298ZM3052.94 41.973H3073.1V13.693H3052.94C3042.58 13.693 3036.84 18.453 3036.84 27.833C3036.84 37.073 3042.58 41.973 3052.94 41.973Z" fill="black"/>
<path fill-rule="evenodd" clip-rule="evenodd" d="M3153.74 0L3164.92 0V33.9517L3196.95 15.461L3202.52 25.1099L3170.29 43.7156L3202.37 62.2383L3196.78 71.9226L3164.92 53.5268V87.106H3153.74V53.2732L3121.79 71.7192L3116.22 62.0703L3147.97 43.7393L3116.07 25.3233L3121.66 15.6389L3153.74 34.1581V0Z" fill="black"/>
<path d="M3228.25 6.28185C3220.88 10.7384 3214.99 17.2808 3211.34 25.0818C3207.68 32.8827 3206.43 41.5917 3207.72 50.1076C3209.02 58.6234 3212.81 66.5636 3218.62 72.9241C3224.43 79.2845 3232 83.7796 3240.36 85.8407C3248.72 87.9019 3257.51 87.4367 3265.61 84.5038C3273.71 81.571 3280.76 76.3023 3285.86 69.364C3290.97 62.4257 3293.9 54.1294 3294.29 45.5242C3294.68 36.9191 3292.51 28.3916 3288.05 21.0201L3278.73 26.6533C3282.08 32.1819 3283.7 38.5776 3283.41 45.0314C3283.12 51.4853 3280.92 57.7075 3277.09 62.9112C3273.26 68.115 3267.98 72.0665 3261.9 74.2661C3255.83 76.4657 3249.24 76.8147 3242.96 75.2688C3236.69 73.7229 3231.02 70.3516 3226.66 65.5813C3222.3 60.811 3219.46 54.8558 3218.49 48.4689C3217.52 42.082 3218.46 35.5502 3221.2 29.6996C3223.94 23.8489 3228.35 18.9421 3233.88 15.5996L3228.25 6.28185Z" fill="black"/>
<path d="M3358.98 83.9045C3366.96 80.663 3373.81 75.1276 3378.64 67.9985C3383.47 60.8693 3386.09 52.4666 3386.15 43.8528C3386.21 35.2391 3383.71 26.8011 3378.97 19.6061C3374.24 12.4111 3367.47 6.7821 3359.54 3.43097C3351.6 0.0798416 3342.85 -0.842918 3334.39 0.779388C3325.93 2.40169 3318.14 6.49619 3312.01 12.5451C3305.88 18.594 3301.68 26.3257 3299.94 34.7624C3298.2 43.1991 3299 51.9618 3302.24 59.9426L3312.33 55.8452C3309.9 49.8596 3309.3 43.2875 3310.6 36.96C3311.91 30.6325 3315.06 24.8338 3319.66 20.2971C3324.26 15.7604 3330.1 12.6895 3336.44 11.4728C3342.79 10.2561 3349.35 10.9481 3355.3 13.4615C3361.25 15.9748 3366.33 20.1966 3369.88 25.5928C3373.43 30.9891 3375.3 37.3175 3375.26 43.7779C3375.21 50.2382 3373.25 56.5402 3369.63 61.8871C3366 67.234 3360.87 71.3855 3354.89 73.8166L3358.98 83.9045Z" fill="black"/>
<path d="M3393.62 58.8092C3396.63 66.8774 3401.97 73.8697 3408.97 78.9018C3415.96 83.9338 3424.28 86.7798 3432.89 87.0796C3441.5 87.3795 3450.01 85.1198 3457.33 80.5864C3464.65 76.0529 3470.47 69.4493 3474.04 61.6106C3477.61 53.7719 3478.78 45.0502 3477.39 36.5484C3476.01 28.0465 3472.13 20.1465 3466.26 13.8471C3460.38 7.54778 3452.77 3.13212 3444.39 1.15854C3436 -0.815048 3427.22 -0.257919 3419.15 2.75948L3422.97 12.9579C3429.02 10.6948 3435.6 10.277 3441.89 11.7572C3448.18 13.2373 3453.89 16.5491 3458.3 21.2736C3462.7 25.9981 3465.61 31.9232 3466.65 38.2995C3467.69 44.6759 3466.81 51.2172 3464.13 57.0962C3461.46 62.9753 3457.09 67.928 3451.6 71.328C3446.11 74.7281 3439.73 76.4229 3433.27 76.198C3426.82 75.9731 3420.57 73.8386 3415.33 70.0646C3410.08 66.2905 3406.08 61.0463 3403.81 54.9952L3393.62 58.8092Z" fill="black"/>
<path d="M3511.37 2.61095C3503.27 5.54863 3496.23 10.8215 3491.13 17.7629C3486.03 24.7043 3483.1 33.0023 3482.71 41.6077C3482.33 50.213 3484.5 58.7393 3488.97 66.1081C3493.43 73.477 3499.97 79.3575 3507.78 83.0061C3515.58 86.6547 3524.29 87.9075 3532.8 86.606C3541.32 85.3045 3549.26 81.5072 3555.61 75.6944C3561.97 69.8815 3566.46 62.3141 3568.52 53.9491C3570.57 45.5842 3570.1 36.7973 3567.17 28.6997L3556.93 32.413C3559.13 38.4862 3559.49 45.0764 3557.94 51.3501C3556.4 57.6238 3553.03 63.2993 3548.27 67.659C3543.5 72.0187 3537.55 74.8666 3531.16 75.8427C3524.77 76.8188 3518.24 75.8793 3512.39 73.1428C3506.54 70.4064 3501.63 65.996 3498.28 60.4693C3494.93 54.9427 3493.3 48.548 3493.59 42.094C3493.88 35.64 3496.08 29.4164 3499.9 24.2104C3503.73 19.0044 3509.01 15.0497 3515.08 12.8465L3511.37 2.61095Z" fill="black"/>
</svg>
