<svg width="1800" height="127" viewBox="0 0 1800 127" fill="none" xmlns="http://www.w3.org/2000/svg">
<g clip-path="url(#clip0_2937_1698)">
<path d="M59.8598 105.351C67.8398 102.11 74.6797 96.5746 79.5097 89.4454C84.3497 82.3163 86.9597 73.9135 87.0197 65.2998C87.0797 56.686 84.5798 48.2481 79.8498 41.0531C75.1098 33.858 68.3496 28.2291 60.4096 24.8779C52.4696 21.5268 43.7197 20.604 35.2597 22.2263C26.7997 23.8486 19.0195 27.9432 12.8795 33.9921C6.74954 40.041 2.54972 47.7727 0.80972 56.2093C-0.93028 64.646 -0.130222 73.4088 3.11978 81.3896L13.1996 77.2922C10.7696 71.3066 10.1696 64.7345 11.4696 58.407C12.7796 52.0795 15.9297 46.2807 20.5297 41.744C25.1297 37.2074 30.9697 34.1365 37.3097 32.9198C43.6597 31.703 50.2196 32.3951 56.1696 34.9084C62.1296 37.4218 67.1997 41.6435 70.7497 47.0398C74.2997 52.4361 76.1796 58.7645 76.1295 65.2248C76.0895 71.6852 74.1297 77.9872 70.4997 83.3341C66.8697 88.6809 61.7397 92.8324 55.7597 95.2636L59.8598 105.351Z" fill="black"/>
<path d="M120.43 24.058C112.33 26.9957 105.29 32.2686 100.18 39.2099C95.08 46.1513 92.1601 54.4493 91.7701 63.0547C91.3901 71.6601 93.5601 80.1863 98.0201 87.5551C102.48 94.924 109.03 100.805 116.83 104.453C124.64 108.102 133.35 109.354 141.86 108.053C150.38 106.752 158.31 102.954 164.67 97.1414C171.03 91.3285 175.52 83.7611 177.58 75.3961C179.63 67.0312 179.16 58.2443 176.22 50.1468L165.99 53.8601C168.19 59.9332 168.54 66.5234 167 72.7971C165.46 79.0708 162.09 84.7464 157.32 89.106C152.56 93.4657 146.6 96.3136 140.22 97.2897C133.83 98.2658 127.3 97.3263 121.45 94.5898C115.59 91.8534 110.68 87.443 107.34 81.9163C103.99 76.3897 102.36 69.995 102.65 63.541C102.94 57.087 105.13 50.8635 108.96 45.6574C112.78 40.4514 118.07 36.4967 124.14 34.2935L120.43 24.058Z" fill="black"/>
<path fill-rule="evenodd" clip-rule="evenodd" d="M221.21 21.447H232.39V55.3986L264.42 36.908L269.99 46.5569L237.76 65.1626L269.85 83.6853L264.25 93.3696L232.39 74.9738V108.553H221.21V74.7201L189.26 93.1662L183.69 83.5172L215.44 65.1862L183.54 46.7702L189.13 37.0859L221.21 55.6051V21.447Z" fill="black"/>
<path d="M334.64 105.351C342.62 102.11 349.46 96.5746 354.3 89.4454C359.13 82.3163 361.74 73.9135 361.8 65.2998C361.86 56.686 359.37 48.2481 354.63 41.0531C349.89 33.858 343.13 28.2291 335.19 24.8779C327.26 21.5268 318.51 20.604 310.05 22.2263C301.59 23.8486 293.8 27.9432 287.67 33.9921C281.53 40.041 277.33 47.7727 275.59 56.2093C273.86 64.646 274.66 73.4088 277.9 81.3896L287.99 77.2922C285.56 71.3066 284.95 64.7345 286.26 58.407C287.56 52.0795 290.71 46.2807 295.31 41.744C299.91 37.2074 305.75 34.1365 312.1 32.9198C318.44 31.703 325.01 32.3951 330.96 34.9084C336.91 37.4218 341.98 41.6435 345.54 47.0398C349.09 52.4361 350.96 58.7645 350.92 65.2248C350.87 71.6852 348.91 77.9872 345.29 83.3341C341.66 88.6809 336.53 92.8324 330.54 95.2636L334.64 105.351Z" fill="black"/>
<path d="M369.52 80.9001C372.66 88.9195 378.12 95.8263 385.19 100.747C392.26 105.668 400.63 108.382 409.24 108.545C417.85 108.709 426.32 106.315 433.57 101.666C440.82 97.017 446.53 90.3221 449.98 82.4279C453.43 74.5336 454.46 65.7945 452.94 57.3157C451.42 48.8368 447.42 40.9991 441.44 34.7935C435.47 28.588 427.79 24.2934 419.37 22.4528C410.96 20.6122 402.18 21.3083 394.17 24.4531L398.14 34.5898C404.16 32.2312 410.73 31.7092 417.05 33.0896C423.36 34.4701 429.12 37.691 433.6 42.3452C438.08 46.9993 441.08 52.8776 442.22 59.2367C443.36 65.5959 442.59 72.1502 440 78.0709C437.42 83.9916 433.13 89.0127 427.69 92.4994C422.26 95.986 415.9 97.7815 409.45 97.6588C402.99 97.5362 396.71 95.5009 391.41 91.8103C386.1 88.1197 382.01 82.9396 379.66 76.9251L369.52 80.9001Z" fill="black"/>
<path d="M540.63 63.18L577.87 100H563.87L530.83 66.82V100H520.47V66.82L487.57 100H473.43L510.67 63.04L475.81 27.48H489.39L520.47 59.96V27.48H530.83V59.96L562.05 27.48H575.63L540.63 63.18ZM595.34 84.6L638.04 27.48H648.4V100H637.76V42.88L595.06 100H584.7V27.48H595.34V84.6ZM688.95 101.12C671.59 101.12 659.69 92.3 655.91 83.2L665.15 77.04C669.21 85.3 677.75 91.18 688.95 91.18C703.37 91.18 708.13 85.02 708.13 78.44C708.13 71.44 703.93 66.96 691.19 66.96H680.13V57.02H690.63C701.13 57.02 705.89 52.96 705.89 46.38C705.89 40.08 700.57 36.16 689.51 36.16C680.83 36.16 674.25 39.1 668.93 46.1L659.97 40.5C665.99 31.54 675.23 26.22 689.51 26.22C707.29 26.22 716.81 34.06 716.81 45.4C716.81 55.48 708.55 59.82 704.35 60.94V61.64C711.21 62.76 719.05 68.5 719.05 78.86C719.05 90.76 709.53 101.12 688.95 101.12ZM781.61 57.3V27.48H792.53V100H781.61V67.38H741.71V100H730.79V27.48H741.71V57.3H781.61ZM819.41 50.3H840.69C857.07 50.3 868.27 58.28 868.27 75.08C868.27 92.02 857.07 100 840.69 100H808.49V27.48H819.41V50.3ZM819.41 90.06H840.69C850.63 90.06 857.35 85.3 857.35 75.08C857.35 65 850.63 60.24 840.69 60.24H819.41V90.06ZM951.53 61.36V62.06C958.53 63.32 966.23 69.06 966.23 79.56C966.23 91.6 957.83 100 942.15 100H906.45V27.48H941.03C955.87 27.48 963.57 34.76 963.57 45.68C963.57 53.94 959.09 59.26 951.53 61.36ZM940.47 37.14H917.37V57.86H940.47C948.87 57.86 952.65 53.8 952.65 47.64C952.65 41.2 948.87 37.14 940.47 37.14ZM917.37 90.2H942.01C950.55 90.2 955.31 85.72 955.31 78.58C955.31 71.72 950.55 67.24 942.01 67.24H917.37V90.2ZM1068.95 26.22C1088.55 26.22 1101.57 41.06 1101.57 63.74C1101.57 86.28 1088.55 101.12 1068.95 101.12C1064.05 101.12 1059.85 100 1056.07 98.18V126.6H1045.57V98.18C1041.79 100 1037.59 101.12 1032.69 101.12C1013.09 101.12 1000.07 86.28 1000.07 63.74C1000.07 41.06 1013.09 26.22 1032.69 26.22C1037.59 26.22 1041.79 27.34 1045.57 29.16V0.599976H1056.07V29.16C1059.85 27.34 1064.05 26.22 1068.95 26.22ZM1034.37 90.9C1038.99 90.9 1042.63 89.92 1045.57 88.24V39.24C1042.63 37.56 1038.99 36.58 1034.37 36.58C1020.09 36.58 1010.99 46.66 1010.99 63.74C1010.99 80.68 1020.09 90.9 1034.37 90.9ZM1067.27 90.9C1081.55 90.9 1090.65 80.68 1090.65 63.74C1090.65 46.66 1081.55 36.58 1067.27 36.58C1062.65 36.58 1059.01 37.56 1056.07 39.24V88.24C1059.01 89.92 1062.65 90.9 1067.27 90.9ZM1143.58 101.12C1122.72 101.12 1106.34 86.56 1106.34 63.74C1106.34 40.92 1122.72 26.22 1143.58 26.22C1164.44 26.22 1180.82 40.92 1180.82 63.74C1180.82 86.56 1164.44 101.12 1143.58 101.12ZM1143.58 91.18C1158.98 91.18 1169.9 81.1 1169.9 63.74C1169.9 46.38 1158.98 36.16 1143.58 36.16C1128.18 36.16 1117.26 46.38 1117.26 63.74C1117.26 81.1 1128.18 91.18 1143.58 91.18ZM1219.16 100H1208.24V37.56H1181.5V27.48H1246.04V37.56H1219.16V100ZM1283.93 101.12C1263.07 101.12 1246.69 86.56 1246.69 63.74C1246.69 40.92 1263.07 26.22 1283.93 26.22C1304.79 26.22 1321.17 40.92 1321.17 63.74C1321.17 86.56 1304.79 101.12 1283.93 101.12ZM1283.93 91.18C1299.33 91.18 1310.25 81.1 1310.25 63.74C1310.25 46.38 1299.33 36.16 1283.93 36.16C1268.53 36.16 1257.61 46.38 1257.61 63.74C1257.61 81.1 1268.53 91.18 1283.93 91.18Z" fill="black"/>
<path fill-rule="evenodd" clip-rule="evenodd" d="M1383.95 21.447H1395.14V55.3987L1427.16 36.908L1432.73 46.5569L1400.51 65.1626L1432.59 83.6853L1427 93.3696L1395.14 74.9738V108.553H1383.95V74.7201L1352 93.1662L1346.43 83.5173L1378.18 65.1862L1346.29 46.7703L1351.88 37.0859L1383.95 55.6051V21.447Z" fill="black"/>
<path d="M1458.46 27.7289C1451.09 32.1855 1445.21 38.7279 1441.55 46.5288C1437.9 54.3297 1436.64 63.0387 1437.94 71.5546C1439.23 80.0705 1443.03 88.0107 1448.84 94.3711C1454.65 100.732 1462.21 105.227 1470.57 107.288C1478.94 109.349 1487.72 108.884 1495.82 105.951C1503.92 103.018 1510.97 97.7493 1516.08 90.811C1521.18 83.8727 1524.11 75.5764 1524.5 66.9713C1524.89 58.3661 1522.72 49.8386 1518.27 42.4671L1508.95 48.1003C1512.29 53.6289 1513.92 60.0246 1513.63 66.4784C1513.33 72.9323 1511.13 79.1545 1507.31 84.3582C1503.48 89.562 1498.19 93.5135 1492.12 95.7131C1486.04 97.9128 1479.45 98.2617 1473.18 96.7158C1466.91 95.1699 1461.23 91.7987 1456.88 87.0283C1452.52 82.258 1449.67 76.3028 1448.7 69.9159C1447.73 63.529 1448.67 56.9973 1451.41 51.1466C1454.15 45.2959 1458.57 40.3891 1464.1 37.0467L1458.46 27.7289Z" fill="black"/>
<path d="M1532.02 80.2562C1535.03 88.3244 1540.38 95.3166 1547.37 100.349C1554.36 105.381 1562.68 108.227 1571.29 108.527C1579.9 108.826 1588.41 106.567 1595.73 102.033C1603.06 97.4999 1608.87 90.8963 1612.44 83.0576C1616.01 75.2189 1617.18 66.4972 1615.8 57.9953C1614.41 49.4935 1610.54 41.5934 1604.66 35.2941C1598.78 28.9947 1591.17 24.5791 1582.79 22.6055C1574.4 20.6319 1565.62 21.189 1557.55 24.2064L1561.37 34.4048C1567.42 32.1418 1574.01 31.7239 1580.29 33.2041C1586.58 34.6843 1592.29 37.996 1596.7 42.7206C1601.1 47.4451 1604.01 53.3701 1605.05 59.7465C1606.09 66.1229 1605.21 72.6642 1602.53 78.5432C1599.86 84.4222 1595.49 89.3749 1590 92.775C1584.51 96.1751 1578.13 97.8698 1571.67 97.6449C1565.22 97.42 1558.97 95.2856 1553.73 91.5115C1548.48 87.7375 1544.48 82.4933 1542.21 76.4421L1532.02 80.2562Z" fill="black"/>
<path d="M1681.01 105.351C1688.99 102.11 1695.84 96.5746 1700.67 89.4454C1705.5 82.3163 1708.12 73.9135 1708.18 65.2998C1708.24 56.686 1705.74 48.2481 1701 41.0531C1696.27 33.858 1689.5 28.2291 1681.57 24.8779C1673.63 21.5268 1664.88 20.604 1656.42 22.2263C1647.96 23.8486 1640.17 27.9432 1634.04 33.9921C1627.91 40.041 1623.71 47.7727 1621.97 56.2093C1620.23 64.646 1621.03 73.4088 1624.27 81.3896L1634.36 77.2922C1631.93 71.3066 1631.33 64.7345 1632.63 58.407C1633.94 52.0795 1637.09 46.2807 1641.69 41.744C1646.29 37.2074 1652.13 34.1365 1658.47 32.9198C1664.82 31.703 1671.38 32.3951 1677.33 34.9084C1683.28 37.4218 1688.36 41.6435 1691.91 47.0398C1695.46 52.4361 1697.33 58.7645 1697.29 65.2248C1697.24 71.6852 1695.28 77.9872 1691.66 83.3341C1688.03 88.6809 1682.9 92.8324 1676.92 95.2636L1681.01 105.351Z" fill="black"/>
<path d="M1741.59 24.058C1733.49 26.9957 1726.44 32.2686 1721.34 39.2099C1716.24 46.1513 1713.31 54.4493 1712.93 63.0547C1712.54 71.6601 1714.72 80.1863 1719.18 87.5551C1723.64 94.924 1730.19 100.805 1737.99 104.453C1745.79 108.102 1754.5 109.354 1763.02 108.053C1771.53 106.752 1779.47 102.954 1785.83 97.1414C1792.19 91.3285 1796.68 83.7611 1798.73 75.3961C1800.79 67.0312 1800.32 58.2443 1797.38 50.1468L1787.15 53.8601C1789.35 59.9332 1789.7 66.5234 1788.16 72.7971C1786.62 79.0708 1783.25 84.7464 1778.48 89.106C1773.71 93.4657 1767.76 96.3136 1761.37 97.2897C1754.99 98.2658 1748.46 97.3263 1742.6 94.5898C1736.75 91.8534 1731.84 87.443 1728.5 81.9163C1725.15 76.3897 1723.52 69.995 1723.81 63.541C1724.1 57.087 1726.29 50.8635 1730.12 45.6574C1733.94 40.4514 1739.23 36.4967 1745.3 34.2935L1741.59 24.058Z" fill="black"/>
</g>
<defs>
<clipPath id="clip0_2937_1698">
<rect width="1800" height="127" fill="white"/>
</clipPath>
</defs>
</svg>
