<svg width="3879" height="127" viewBox="0 0 3879 127" fill="none" xmlns="http://www.w3.org/2000/svg">
<path d="M21.0201 27.7289C13.6486 32.1855 7.76416 38.7279 4.11091 46.5288C0.457647 54.3297 -0.80033 63.0387 0.496053 71.5546C1.79244 80.0705 5.58495 88.0107 11.394 94.3711C17.2031 100.732 24.7678 105.227 33.1315 107.288C41.4953 109.349 50.2824 108.884 58.3817 105.951C66.481 103.018 73.5288 97.7493 78.6337 90.811C83.7386 83.8727 86.6715 75.5764 87.0614 66.9713C87.4513 58.3661 85.2807 49.8386 80.8241 42.4671L71.5063 48.1003C74.8487 53.6289 76.4767 60.0246 76.1843 66.4784C75.8919 72.9323 73.6922 79.1545 69.8635 84.3582C66.0348 89.562 60.749 93.5135 54.6745 95.7131C48.6 97.9128 42.0097 98.2617 35.7369 96.7158C29.4641 95.1699 23.7906 91.7987 19.4338 87.0283C15.077 82.258 12.2326 76.3028 11.2603 69.9159C10.288 63.529 11.2315 56.9973 13.9714 51.1466C16.7114 45.2959 21.1247 40.3891 26.6534 37.0467L21.0201 27.7289Z" fill="black"/>
<path fill-rule="evenodd" clip-rule="evenodd" d="M129.482 21.447H140.664V55.3986L172.691 36.908L178.262 46.5569L146.036 65.1626L178.118 83.6853L172.527 93.3696L140.664 74.9738V108.553H129.482V74.7201L97.5324 93.1662L91.9616 83.5172L123.712 65.1862L91.8145 46.7702L97.4057 37.0859L129.482 55.6051V21.447Z" fill="black"/>
<path d="M185.73 80.2562C188.748 88.3244 194.09 95.3166 201.081 100.349C208.072 105.381 216.399 108.227 225.008 108.527C233.616 108.826 242.121 106.567 249.445 102.033C256.77 97.4999 262.585 90.8963 266.157 83.0576C269.728 75.2189 270.895 66.4972 269.51 57.9953C268.124 49.4935 264.249 41.5934 258.374 35.2941C252.498 28.9947 244.887 24.5791 236.502 22.6055C228.117 20.6319 219.336 21.189 211.268 24.2064L215.082 34.4048C221.133 32.1418 227.719 31.7239 234.008 33.2041C240.296 34.6843 246.005 37.996 250.411 42.7206C254.818 47.4451 257.724 53.3701 258.763 59.7465C259.802 66.1229 258.927 72.6642 256.249 78.5432C253.57 84.4222 249.208 89.3749 243.715 92.775C238.221 96.1751 231.843 97.8698 225.387 97.6449C218.93 97.42 212.685 95.2856 207.442 91.5115C202.198 87.7375 198.192 82.4933 195.929 76.4421L185.73 80.2562Z" fill="black"/>
<path d="M334.728 105.351C342.709 102.11 349.549 96.5746 354.384 89.4454C359.219 82.3163 361.831 73.9135 361.89 65.2998C361.949 56.686 359.453 48.2481 354.717 41.0531C349.981 33.858 343.217 28.2291 335.282 24.8779C327.346 21.5268 318.595 20.604 310.136 22.2263C301.676 23.8486 293.887 27.9432 287.754 33.9921C281.621 40.041 277.42 47.7727 275.682 56.2093C273.943 64.646 274.745 73.4088 277.987 81.3896L288.075 77.2922C285.643 71.3066 285.042 64.7345 286.346 58.407C287.65 52.0795 290.801 46.2807 295.4 41.744C300 37.2074 305.841 34.1365 312.186 32.9198C318.531 31.703 325.094 32.3951 331.046 34.9084C336.997 37.4218 342.07 41.6435 345.622 47.0398C349.174 52.4361 351.047 58.7645 351.002 65.2248C350.958 71.6852 348.998 77.9872 345.372 83.3341C341.746 88.6809 336.616 92.8324 330.63 95.2636L334.728 105.351Z" fill="black"/>
<path d="M395.299 24.058C387.202 26.9957 380.157 32.2686 375.056 39.2099C369.956 46.1513 367.028 54.4493 366.643 63.0547C366.258 71.6601 368.434 80.1863 372.895 87.5551C377.356 94.924 383.902 100.805 391.705 104.453C399.508 108.102 408.218 109.354 416.733 108.053C425.248 106.752 433.186 102.954 439.543 97.1414C445.9 91.3285 450.39 83.7611 452.447 75.3961C454.503 67.0312 454.032 58.2443 451.095 50.1468L440.859 53.8601C443.062 59.9332 443.415 66.5234 441.873 72.7971C440.331 79.0708 436.963 84.7464 432.195 89.106C427.428 93.4657 421.474 96.3136 415.088 97.2897C408.702 98.2658 402.169 97.3263 396.317 94.5898C390.465 91.8534 385.555 87.443 382.209 81.9163C378.864 76.3897 377.232 69.995 377.52 63.541C377.809 57.087 380.005 50.8635 383.831 45.6574C387.656 40.4514 392.94 36.4967 399.013 34.2935L395.299 24.058Z" fill="black"/>
<path fill-rule="evenodd" clip-rule="evenodd" d="M496.082 21.4469H507.264V55.3986L539.291 36.9079L544.862 46.5569L512.636 65.1626L544.718 83.6852L539.127 93.3696L507.264 74.9738V108.553H496.082V74.7201L464.132 93.1661L458.561 83.5172L490.311 65.1862L458.414 46.7702L464.005 37.0859L496.082 55.6051V21.4469Z" fill="black"/>
<path d="M609.512 105.351C617.493 102.11 624.334 96.5746 629.168 89.4454C634.003 82.3163 636.616 73.9135 636.675 65.2998C636.734 56.686 634.238 48.2481 629.502 41.0531C624.765 33.858 618.002 28.2291 610.066 24.8779C602.131 21.5268 593.38 20.604 584.92 22.2263C576.46 23.8486 568.672 27.9432 562.539 33.9921C556.406 40.041 552.205 47.7727 550.466 56.2093C548.728 64.646 549.53 73.4088 552.771 81.3896L562.859 77.2922C560.428 71.3066 559.826 64.7345 561.13 58.407C562.434 52.0795 565.585 46.2807 570.185 41.744C574.785 37.2074 580.626 34.1365 586.971 32.9198C593.316 31.703 599.879 32.3951 605.831 34.9084C611.782 37.4218 616.855 41.6435 620.407 47.0398C623.959 52.4361 625.831 58.7645 625.787 65.2248C625.742 71.6852 623.783 77.9872 620.157 83.3341C616.531 88.6809 611.401 92.8324 605.415 95.2636L609.512 105.351Z" fill="black"/>
<path d="M644.39 80.9001C647.535 88.9195 652.987 95.8263 660.057 100.747C667.128 105.668 675.498 108.382 684.11 108.545C692.723 108.709 701.19 106.315 708.442 101.666C715.694 97.017 721.404 90.3221 724.851 82.4279C728.298 74.5336 729.327 65.7945 727.807 57.3157C726.287 48.8368 722.287 40.9991 716.313 34.7935C710.339 28.588 702.658 24.2934 694.243 22.4528C685.828 20.6122 677.057 21.3083 669.037 24.4531L673.012 34.5898C679.027 32.2312 685.606 31.7092 691.917 33.0896C698.228 34.4701 703.988 37.691 708.469 42.3452C712.95 46.9993 715.95 52.8776 717.09 59.2367C718.229 65.5959 717.458 72.1502 714.873 78.0709C712.288 83.9916 708.005 89.0127 702.566 92.4994C697.127 95.986 690.776 97.7815 684.317 97.6588C677.858 97.5362 671.58 95.5009 666.277 91.8103C660.975 88.1197 656.886 82.9396 654.527 76.9251L644.39 80.9001Z" fill="black"/>
<path d="M759.72 24.9151C751.792 28.2835 745.041 33.9273 740.321 41.1327C735.6 48.338 733.122 56.7814 733.201 65.395C733.279 74.0086 735.909 82.4056 740.76 89.5242C745.61 96.6427 752.463 102.163 760.45 105.387C768.438 108.611 777.203 109.394 785.636 107.637C794.068 105.88 801.791 101.662 807.826 95.516C813.862 89.37 817.939 81.5723 819.543 73.1089C821.147 64.6456 820.205 55.8967 816.837 47.9687L806.815 52.2265C809.342 58.1725 810.048 64.7342 808.845 71.0817C807.642 77.4292 804.584 83.2775 800.058 87.887C795.531 92.4965 789.739 95.6602 783.415 96.978C777.09 98.2958 770.517 97.7085 764.526 95.2904C758.535 92.8723 753.396 88.732 749.758 83.3931C746.12 78.0542 744.147 71.7565 744.088 65.2962C744.03 58.836 745.888 52.5035 749.429 47.0995C752.969 41.6955 758.032 37.4626 763.978 34.9363L759.72 24.9151Z" fill="black"/>
<path fill-rule="evenodd" clip-rule="evenodd" d="M862.681 21.447H873.863V55.3987L905.89 36.908L911.461 46.5569L879.235 65.1626L911.317 83.6853L905.726 93.3696L873.863 74.9738V108.553H862.681V74.7201L830.731 93.1662L825.16 83.5173L856.911 65.1862L825.013 46.7703L830.604 37.0859L862.681 55.6051V21.447Z" fill="black"/>
<path d="M998.474 63.18L1035.71 100H1021.71L988.674 66.82V100H978.314V66.82L945.414 100H931.274L968.514 63.04L933.654 27.48H947.234L978.314 59.96V27.48H988.674V59.96L1019.89 27.48H1033.47L998.474 63.18ZM1053.18 84.6L1095.88 27.48H1106.24V100H1095.6V42.88L1052.9 100H1042.54V27.48H1053.18V84.6ZM1146.79 101.12C1129.43 101.12 1117.53 92.3 1113.75 83.2L1122.99 77.04C1127.05 85.3 1135.59 91.18 1146.79 91.18C1161.21 91.18 1165.97 85.02 1165.97 78.44C1165.97 71.44 1161.77 66.96 1149.03 66.96H1137.97V57.02H1148.47C1158.97 57.02 1163.73 52.96 1163.73 46.38C1163.73 40.08 1158.41 36.16 1147.35 36.16C1138.67 36.16 1132.09 39.1 1126.77 46.1L1117.81 40.5C1123.83 31.54 1133.07 26.22 1147.35 26.22C1165.13 26.22 1174.65 34.06 1174.65 45.4C1174.65 55.48 1166.39 59.82 1162.19 60.94V61.64C1169.05 62.76 1176.89 68.5 1176.89 78.86C1176.89 90.76 1167.37 101.12 1146.79 101.12ZM1239.45 57.3V27.48H1250.37V100H1239.45V67.38H1199.55V100H1188.63V27.48H1199.55V57.3H1239.45ZM1277.25 50.3H1298.53C1314.91 50.3 1326.11 58.28 1326.11 75.08C1326.11 92.02 1314.91 100 1298.53 100H1266.33V27.48H1277.25V50.3ZM1277.25 90.06H1298.53C1308.47 90.06 1315.19 85.3 1315.19 75.08C1315.19 65 1308.47 60.24 1298.53 60.24H1277.25V90.06ZM1409.38 61.36V62.06C1416.38 63.32 1424.08 69.06 1424.08 79.56C1424.08 91.6 1415.68 100 1400 100H1364.3V27.48H1398.88C1413.72 27.48 1421.42 34.76 1421.42 45.68C1421.42 53.94 1416.94 59.26 1409.38 61.36ZM1398.32 37.14H1375.22V57.86H1398.32C1406.72 57.86 1410.5 53.8 1410.5 47.64C1410.5 41.2 1406.72 37.14 1398.32 37.14ZM1375.22 90.2H1399.86C1408.4 90.2 1413.16 85.72 1413.16 78.58C1413.16 71.72 1408.4 67.24 1399.86 67.24H1375.22V90.2ZM1526.79 26.22C1546.39 26.22 1559.41 41.06 1559.41 63.74C1559.41 86.28 1546.39 101.12 1526.79 101.12C1521.89 101.12 1517.69 100 1513.91 98.18V126.6H1503.41V98.18C1499.63 100 1495.43 101.12 1490.53 101.12C1470.93 101.12 1457.91 86.28 1457.91 63.74C1457.91 41.06 1470.93 26.22 1490.53 26.22C1495.43 26.22 1499.63 27.34 1503.41 29.16V0.599995H1513.91V29.16C1517.69 27.34 1521.89 26.22 1526.79 26.22ZM1492.21 90.9C1496.83 90.9 1500.47 89.92 1503.41 88.24V39.24C1500.47 37.56 1496.83 36.58 1492.21 36.58C1477.93 36.58 1468.83 46.66 1468.83 63.74C1468.83 80.68 1477.93 90.9 1492.21 90.9ZM1525.11 90.9C1539.39 90.9 1548.49 80.68 1548.49 63.74C1548.49 46.66 1539.39 36.58 1525.11 36.58C1520.49 36.58 1516.85 37.56 1513.91 39.24V88.24C1516.85 89.92 1520.49 90.9 1525.11 90.9ZM1601.42 101.12C1580.56 101.12 1564.18 86.56 1564.18 63.74C1564.18 40.92 1580.56 26.22 1601.42 26.22C1622.28 26.22 1638.66 40.92 1638.66 63.74C1638.66 86.56 1622.28 101.12 1601.42 101.12ZM1601.42 91.18C1616.82 91.18 1627.74 81.1 1627.74 63.74C1627.74 46.38 1616.82 36.16 1601.42 36.16C1586.02 36.16 1575.1 46.38 1575.1 63.74C1575.1 81.1 1586.02 91.18 1601.42 91.18ZM1677.01 100H1666.09V37.56H1639.35V27.48H1703.89V37.56H1677.01V100ZM1741.77 101.12C1720.91 101.12 1704.53 86.56 1704.53 63.74C1704.53 40.92 1720.91 26.22 1741.77 26.22C1762.63 26.22 1779.01 40.92 1779.01 63.74C1779.01 86.56 1762.63 101.12 1741.77 101.12ZM1741.77 91.18C1757.17 91.18 1768.09 81.1 1768.09 63.74C1768.09 46.38 1757.17 36.16 1741.77 36.16C1726.37 36.16 1715.45 46.38 1715.45 63.74C1715.45 81.1 1726.37 91.18 1741.77 91.18Z" fill="black"/>
<path fill-rule="evenodd" clip-rule="evenodd" d="M1841.8 21.447H1852.98V55.3987L1885.01 36.908L1890.58 46.5569L1858.35 65.1626L1890.43 83.6853L1884.84 93.3696L1852.98 74.9738V108.553H1841.8V74.7201L1809.85 93.1662L1804.28 83.5173L1836.03 65.1862L1804.13 46.7703L1809.72 37.0859L1841.8 55.6051V21.447Z" fill="black"/>
<path d="M1916.3 27.7289C1908.93 32.1855 1903.05 38.7279 1899.4 46.5288C1895.74 54.3297 1894.48 63.0387 1895.78 71.5546C1897.08 80.0705 1900.87 88.0107 1906.68 94.3711C1912.49 100.732 1920.05 105.227 1928.42 107.288C1936.78 109.349 1945.57 108.884 1953.67 105.951C1961.77 103.018 1968.81 97.7493 1973.92 90.811C1979.02 83.8727 1981.96 75.5764 1982.35 66.9713C1982.74 58.3661 1980.57 49.8386 1976.11 42.4671L1966.79 48.1003C1970.13 53.6289 1971.76 60.0246 1971.47 66.4784C1971.18 72.9323 1968.98 79.1545 1965.15 84.3582C1961.32 89.562 1956.03 93.5135 1949.96 95.7131C1943.88 97.9128 1937.29 98.2617 1931.02 96.7158C1924.75 95.1699 1919.08 91.7987 1914.72 87.0283C1910.36 82.258 1907.52 76.3028 1906.54 69.9159C1905.57 63.529 1906.52 56.9973 1909.26 51.1466C1912 45.2959 1916.41 40.3891 1921.94 37.0467L1916.3 27.7289Z" fill="black"/>
<path d="M1989.86 80.2562C1992.88 88.3244 1998.22 95.3166 2005.21 100.349C2012.2 105.381 2020.53 108.227 2029.14 108.527C2037.74 108.826 2046.25 106.567 2053.57 102.033C2060.9 97.4999 2066.71 90.8963 2070.29 83.0576C2073.86 75.2189 2075.02 66.4972 2073.64 57.9953C2072.25 49.4935 2068.38 41.5934 2062.5 35.2941C2056.63 28.9947 2049.02 24.5791 2040.63 22.6055C2032.25 20.6319 2023.46 21.189 2015.4 24.2064L2019.21 34.4048C2025.26 32.1418 2031.85 31.7239 2038.14 33.2041C2044.42 34.6843 2050.13 37.996 2054.54 42.7206C2058.95 47.4451 2061.85 53.3701 2062.89 59.7465C2063.93 66.1229 2063.06 72.6642 2060.38 78.5432C2057.7 84.4222 2053.34 89.3749 2047.84 92.775C2042.35 96.1751 2035.97 97.8698 2029.52 97.6449C2023.06 97.42 2016.81 95.2856 2011.57 91.5115C2006.33 87.7375 2002.32 82.4933 2000.06 76.4421L1989.86 80.2562Z" fill="black"/>
<path d="M2138.86 105.351C2146.84 102.11 2153.68 96.5746 2158.51 89.4454C2163.35 82.3163 2165.96 73.9135 2166.02 65.2998C2166.08 56.686 2163.58 48.2481 2158.85 41.0531C2154.11 33.858 2147.35 28.2291 2139.41 24.8779C2131.47 21.5268 2122.72 20.604 2114.26 22.2263C2105.8 23.8486 2098.02 27.9432 2091.88 33.9921C2085.75 40.041 2081.55 47.7727 2079.81 56.2093C2078.07 64.646 2078.87 73.4088 2082.12 81.3896L2092.2 77.2922C2089.77 71.3066 2089.17 64.7345 2090.47 58.407C2091.78 52.0795 2094.93 46.2807 2099.53 41.744C2104.13 37.2074 2109.97 34.1365 2116.31 32.9198C2122.66 31.703 2129.22 32.3951 2135.17 34.9084C2141.13 37.4218 2146.2 41.6435 2149.75 47.0398C2153.3 52.4361 2155.18 58.7645 2155.13 65.2248C2155.09 71.6852 2153.13 77.9872 2149.5 83.3341C2145.87 88.6809 2140.74 92.8324 2134.76 95.2636L2138.86 105.351Z" fill="black"/>
<path d="M2199.43 24.058C2191.33 26.9957 2184.29 32.2686 2179.18 39.2099C2174.08 46.1513 2171.16 54.4493 2170.77 63.0547C2170.39 71.6601 2172.56 80.1863 2177.02 87.5551C2181.48 94.924 2188.03 100.805 2195.83 104.453C2203.64 108.102 2212.35 109.354 2220.86 108.053C2229.38 106.752 2237.31 102.954 2243.67 97.1414C2250.03 91.3285 2254.52 83.7611 2256.58 75.3961C2258.63 67.0312 2258.16 58.2443 2255.22 50.1468L2244.99 53.8601C2247.19 59.9332 2247.54 66.5234 2246 72.7971C2244.46 79.0708 2241.09 84.7464 2236.32 89.106C2231.56 93.4657 2225.6 96.3136 2219.22 97.2897C2212.83 98.2658 2206.3 97.3263 2200.45 94.5898C2194.59 91.8534 2189.68 87.443 2186.34 81.9163C2182.99 76.3897 2181.36 69.995 2181.65 63.541C2181.94 57.087 2184.13 50.8635 2187.96 45.6574C2191.78 40.4514 2197.07 36.4967 2203.14 34.2935L2199.43 24.058Z" fill="black"/>
<path fill-rule="evenodd" clip-rule="evenodd" d="M2300.21 21.447H2311.39V55.3986L2343.42 36.908L2348.99 46.5569L2316.76 65.1626L2348.85 83.6853L2343.25 93.3696L2311.39 74.9738V108.553H2300.21V74.7201L2268.26 93.1662L2262.69 83.5172L2294.44 65.1862L2262.54 46.7702L2268.13 37.0859L2300.21 55.6051V21.447Z" fill="black"/>
<path d="M2413.64 105.351C2421.62 102.11 2428.46 96.5746 2433.3 89.4454C2438.13 82.3163 2440.74 73.9135 2440.8 65.2998C2440.86 56.686 2438.37 48.2481 2433.63 41.0531C2428.89 33.858 2422.13 28.2291 2414.19 24.8779C2406.26 21.5268 2397.51 20.604 2389.05 22.2263C2380.59 23.8486 2372.8 27.9432 2366.67 33.9921C2360.53 40.041 2356.33 47.7727 2354.59 56.2093C2352.86 64.646 2353.66 73.4088 2356.9 81.3896L2366.99 77.2922C2364.56 71.3066 2363.95 64.7345 2365.26 58.407C2366.56 52.0795 2369.71 46.2807 2374.31 41.744C2378.91 37.2074 2384.75 34.1365 2391.1 32.9198C2397.44 31.703 2404.01 32.3951 2409.96 34.9084C2415.91 37.4218 2420.98 41.6435 2424.54 47.0398C2428.09 52.4361 2429.96 58.7645 2429.92 65.2248C2429.87 71.6852 2427.91 77.9872 2424.29 83.3341C2420.66 88.6809 2415.53 92.8324 2409.54 95.2636L2413.64 105.351Z" fill="black"/>
<path d="M2448.52 80.9001C2451.66 88.9195 2457.12 95.8263 2464.19 100.747C2471.26 105.668 2479.63 108.382 2488.24 108.545C2496.85 108.709 2505.32 106.315 2512.57 101.666C2519.82 97.017 2525.53 90.3221 2528.98 82.4279C2532.43 74.5336 2533.46 65.7945 2531.94 57.3157C2530.42 48.8368 2526.42 40.9991 2520.44 34.7935C2514.47 28.588 2506.79 24.2934 2498.37 22.4528C2489.96 20.6122 2481.18 21.3083 2473.17 24.4531L2477.14 34.5898C2483.16 32.2312 2489.73 31.7092 2496.05 33.0896C2502.36 34.4701 2508.12 37.691 2512.6 42.3452C2517.08 46.9993 2520.08 52.8776 2521.22 59.2367C2522.36 65.5959 2521.59 72.1502 2519 78.0709C2516.42 83.9916 2512.13 89.0127 2506.69 92.4994C2501.26 95.986 2494.9 97.7815 2488.45 97.6588C2481.99 97.5362 2475.71 95.5009 2470.41 91.8103C2465.1 88.1197 2461.01 82.9396 2458.66 76.9251L2448.52 80.9001Z" fill="black"/>
<path d="M2619.63 63.18L2656.87 100H2642.87L2609.83 66.82V100H2599.47V66.82L2566.57 100H2552.43L2589.67 63.04L2554.81 27.48H2568.39L2599.47 59.96V27.48H2609.83V59.96L2641.05 27.48H2654.63L2619.63 63.18ZM2674.34 84.6L2717.04 27.48H2727.4V100H2716.76V42.88L2674.06 100H2663.7V27.48H2674.34V84.6ZM2767.95 101.12C2750.59 101.12 2738.69 92.3 2734.91 83.2L2744.15 77.04C2748.21 85.3 2756.75 91.18 2767.95 91.18C2782.37 91.18 2787.13 85.02 2787.13 78.44C2787.13 71.44 2782.93 66.96 2770.19 66.96H2759.13V57.02H2769.63C2780.13 57.02 2784.89 52.96 2784.89 46.38C2784.89 40.08 2779.57 36.16 2768.51 36.16C2759.83 36.16 2753.25 39.1 2747.93 46.1L2738.97 40.5C2744.99 31.54 2754.23 26.22 2768.51 26.22C2786.29 26.22 2795.81 34.06 2795.81 45.4C2795.81 55.48 2787.55 59.82 2783.35 60.94V61.64C2790.21 62.76 2798.05 68.5 2798.05 78.86C2798.05 90.76 2788.53 101.12 2767.95 101.12ZM2860.61 57.3V27.48H2871.53V100H2860.61V67.38H2820.71V100H2809.79V27.48H2820.71V57.3H2860.61ZM2898.41 50.3H2919.69C2936.07 50.3 2947.27 58.28 2947.27 75.08C2947.27 92.02 2936.07 100 2919.69 100H2887.49V27.48H2898.41V50.3ZM2898.41 90.06H2919.69C2929.63 90.06 2936.35 85.3 2936.35 75.08C2936.35 65 2929.63 60.24 2919.69 60.24H2898.41V90.06ZM3030.53 61.36V62.06C3037.53 63.32 3045.23 69.06 3045.23 79.56C3045.23 91.6 3036.83 100 3021.15 100H2985.45V27.48H3020.03C3034.87 27.48 3042.57 34.76 3042.57 45.68C3042.57 53.94 3038.09 59.26 3030.53 61.36ZM3019.47 37.14H2996.37V57.86H3019.47C3027.87 57.86 3031.65 53.8 3031.65 47.64C3031.65 41.2 3027.87 37.14 3019.47 37.14ZM2996.37 90.2H3021.01C3029.55 90.2 3034.31 85.72 3034.31 78.58C3034.31 71.72 3029.55 67.24 3021.01 67.24H2996.37V90.2ZM3147.95 26.22C3167.55 26.22 3180.57 41.06 3180.57 63.74C3180.57 86.28 3167.55 101.12 3147.95 101.12C3143.05 101.12 3138.85 100 3135.07 98.18V126.6H3124.57V98.18C3120.79 100 3116.59 101.12 3111.69 101.12C3092.09 101.12 3079.07 86.28 3079.07 63.74C3079.07 41.06 3092.09 26.22 3111.69 26.22C3116.59 26.22 3120.79 27.34 3124.57 29.16V0.599995H3135.07V29.16C3138.85 27.34 3143.05 26.22 3147.95 26.22ZM3113.37 90.9C3117.99 90.9 3121.63 89.92 3124.57 88.24V39.24C3121.63 37.56 3117.99 36.58 3113.37 36.58C3099.09 36.58 3089.99 46.66 3089.99 63.74C3089.99 80.68 3099.09 90.9 3113.37 90.9ZM3146.27 90.9C3160.55 90.9 3169.65 80.68 3169.65 63.74C3169.65 46.66 3160.55 36.58 3146.27 36.58C3141.65 36.58 3138.01 37.56 3135.07 39.24V88.24C3138.01 89.92 3141.65 90.9 3146.27 90.9ZM3222.58 101.12C3201.72 101.12 3185.34 86.56 3185.34 63.74C3185.34 40.92 3201.72 26.22 3222.58 26.22C3243.44 26.22 3259.82 40.92 3259.82 63.74C3259.82 86.56 3243.44 101.12 3222.58 101.12ZM3222.58 91.18C3237.98 91.18 3248.9 81.1 3248.9 63.74C3248.9 46.38 3237.98 36.16 3222.58 36.16C3207.18 36.16 3196.26 46.38 3196.26 63.74C3196.26 81.1 3207.18 91.18 3222.58 91.18ZM3298.16 100H3287.24V37.56H3260.5V27.48H3325.04V37.56H3298.16V100ZM3362.93 101.12C3342.07 101.12 3325.69 86.56 3325.69 63.74C3325.69 40.92 3342.07 26.22 3362.93 26.22C3383.79 26.22 3400.17 40.92 3400.17 63.74C3400.17 86.56 3383.79 101.12 3362.93 101.12ZM3362.93 91.18C3378.33 91.18 3389.25 81.1 3389.25 63.74C3389.25 46.38 3378.33 36.16 3362.93 36.16C3347.53 36.16 3336.61 46.38 3336.61 63.74C3336.61 81.1 3347.53 91.18 3362.93 91.18Z" fill="black"/>
<path fill-rule="evenodd" clip-rule="evenodd" d="M3462.95 21.447H3474.14V55.3987L3506.16 36.908L3511.73 46.5569L3479.51 65.1626L3511.59 83.6853L3506 93.3696L3474.14 74.9738V108.553H3462.95V74.7201L3431 93.1662L3425.43 83.5173L3457.18 65.1862L3425.29 46.7703L3430.88 37.0859L3462.95 55.6051V21.447Z" fill="black"/>
<path d="M3537.46 27.7289C3530.09 32.1855 3524.21 38.7279 3520.55 46.5288C3516.9 54.3297 3515.64 63.0387 3516.94 71.5546C3518.23 80.0705 3522.03 88.0107 3527.84 94.3711C3533.65 100.732 3541.21 105.227 3549.57 107.288C3557.94 109.349 3566.72 108.884 3574.82 105.951C3582.92 103.018 3589.97 97.7493 3595.08 90.811C3600.18 83.8727 3603.11 75.5764 3603.5 66.9713C3603.89 58.3661 3601.72 49.8386 3597.27 42.4671L3587.95 48.1003C3591.29 53.6289 3592.92 60.0246 3592.63 66.4784C3592.33 72.9323 3590.13 79.1545 3586.31 84.3582C3582.48 89.562 3577.19 93.5135 3571.12 95.7131C3565.04 97.9128 3558.45 98.2617 3552.18 96.7158C3545.91 95.1699 3540.23 91.7987 3535.88 87.0283C3531.52 82.258 3528.67 76.3028 3527.7 69.9159C3526.73 63.529 3527.67 56.9973 3530.41 51.1466C3533.15 45.2959 3537.57 40.3891 3543.1 37.0467L3537.46 27.7289Z" fill="black"/>
<path d="M3611.02 80.2562C3614.03 88.3244 3619.38 95.3166 3626.37 100.349C3633.36 105.381 3641.68 108.227 3650.29 108.527C3658.9 108.826 3667.41 106.567 3674.73 102.033C3682.06 97.4999 3687.87 90.8963 3691.44 83.0576C3695.01 75.2189 3696.18 66.4972 3694.8 57.9953C3693.41 49.4935 3689.54 41.5934 3683.66 35.2941C3677.78 28.9947 3670.17 24.5791 3661.79 22.6055C3653.4 20.6319 3644.62 21.189 3636.55 24.2064L3640.37 34.4048C3646.42 32.1418 3653.01 31.7239 3659.29 33.2041C3665.58 34.6843 3671.29 37.996 3675.7 42.7206C3680.1 47.4451 3683.01 53.3701 3684.05 59.7465C3685.09 66.1229 3684.21 72.6642 3681.53 78.5432C3678.86 84.4222 3674.49 89.3749 3669 92.775C3663.51 96.1751 3657.13 97.8698 3650.67 97.6449C3644.22 97.42 3637.97 95.2856 3632.73 91.5115C3627.48 87.7375 3623.48 82.4933 3621.21 76.4421L3611.02 80.2562Z" fill="black"/>
<path d="M3760.01 105.351C3767.99 102.11 3774.84 96.5746 3779.67 89.4454C3784.5 82.3163 3787.12 73.9135 3787.18 65.2998C3787.24 56.686 3784.74 48.2481 3780 41.0531C3775.27 33.858 3768.5 28.2291 3760.57 24.8779C3752.63 21.5268 3743.88 20.604 3735.42 22.2263C3726.96 23.8486 3719.17 27.9432 3713.04 33.9921C3706.91 40.041 3702.71 47.7727 3700.97 56.2093C3699.23 64.646 3700.03 73.4088 3703.27 81.3896L3713.36 77.2922C3710.93 71.3066 3710.33 64.7345 3711.63 58.407C3712.94 52.0795 3716.09 46.2807 3720.69 41.744C3725.29 37.2074 3731.13 34.1365 3737.47 32.9198C3743.82 31.703 3750.38 32.3951 3756.33 34.9084C3762.28 37.4218 3767.36 41.6435 3770.91 47.0398C3774.46 52.4361 3776.33 58.7645 3776.29 65.2248C3776.24 71.6852 3774.28 77.9872 3770.66 83.3341C3767.03 88.6809 3761.9 92.8324 3755.92 95.2636L3760.01 105.351Z" fill="black"/>
<path d="M3820.59 24.058C3812.49 26.9957 3805.44 32.2686 3800.34 39.2099C3795.24 46.1513 3792.31 54.4493 3791.93 63.0547C3791.54 71.6601 3793.72 80.1863 3798.18 87.5551C3802.64 94.924 3809.19 100.805 3816.99 104.453C3824.79 108.102 3833.5 109.354 3842.02 108.053C3850.53 106.752 3858.47 102.954 3864.83 97.1414C3871.19 91.3285 3875.68 83.7611 3877.73 75.3961C3879.79 67.0312 3879.32 58.2443 3876.38 50.1468L3866.15 53.8601C3868.35 59.9332 3868.7 66.5234 3867.16 72.7971C3865.62 79.0708 3862.25 84.7464 3857.48 89.106C3852.71 93.4657 3846.76 96.3136 3840.37 97.2897C3833.99 98.2658 3827.46 97.3263 3821.6 94.5898C3815.75 91.8534 3810.84 87.443 3807.5 81.9163C3804.15 76.3897 3802.52 69.995 3802.81 63.541C3803.1 57.087 3805.29 50.8635 3809.12 45.6574C3812.94 40.4514 3818.23 36.4967 3824.3 34.2935L3820.59 24.058Z" fill="black"/>
</svg>
