<svg width="1800" height="127" viewBox="0 0 1800 127" fill="none" xmlns="http://www.w3.org/2000/svg">
<g clip-path="url(#clip0_2937_1554)">
<path d="M21.0201 27.7289C13.6486 32.1855 7.76419 38.7279 4.11094 46.5288C0.457677 54.3297 -0.800299 63.0387 0.496084 71.5546C1.79247 80.0705 5.58498 88.0107 11.394 94.3711C17.2031 100.732 24.7678 105.227 33.1315 107.288C41.4953 109.349 50.2824 108.884 58.3817 105.951C66.481 103.018 73.5288 97.7493 78.6337 90.811C83.7386 83.8727 86.6715 75.5764 87.0614 66.9713C87.4513 58.3661 85.2807 49.8386 80.8241 42.4671L71.5063 48.1003C74.8487 53.6289 76.4767 60.0246 76.1843 66.4784C75.8919 72.9323 73.6922 79.1545 69.8635 84.3582C66.0348 89.562 60.749 93.5135 54.6745 95.7131C48.6 97.9128 42.0097 98.2617 35.7369 96.7158C29.4641 95.1699 23.7906 91.7987 19.4338 87.0283C15.077 82.258 12.2326 76.3028 11.2603 69.9159C10.288 63.529 11.2315 56.9973 13.9714 51.1466C16.7114 45.2959 21.1247 40.3891 26.6534 37.0467L21.0201 27.7289Z" fill="black"/>
<path fill-rule="evenodd" clip-rule="evenodd" d="M129.482 21.447H140.664V55.3986L172.691 36.908L178.262 46.5569L146.036 65.1626L178.118 83.6853L172.527 93.3696L140.664 74.9738V108.553H129.482V74.7201L97.5324 93.1662L91.9616 83.5172L123.712 65.1862L91.8145 46.7702L97.4057 37.0859L129.482 55.6051V21.447Z" fill="black"/>
<path d="M185.73 80.2562C188.748 88.3244 194.09 95.3166 201.081 100.349C208.072 105.381 216.399 108.227 225.008 108.527C233.616 108.826 242.121 106.567 249.445 102.033C256.77 97.4999 262.585 90.8963 266.157 83.0576C269.728 75.2189 270.895 66.4972 269.51 57.9953C268.124 49.4935 264.249 41.5934 258.374 35.2941C252.498 28.9947 244.887 24.5791 236.502 22.6055C228.117 20.6319 219.336 21.189 211.268 24.2064L215.082 34.4048C221.133 32.1418 227.719 31.7239 234.008 33.2041C240.296 34.6843 246.005 37.996 250.411 42.7206C254.818 47.4451 257.724 53.3701 258.763 59.7465C259.802 66.1229 258.927 72.6642 256.249 78.5432C253.57 84.4222 249.208 89.3749 243.715 92.775C238.221 96.1751 231.843 97.8698 225.387 97.6449C218.93 97.42 212.685 95.2856 207.442 91.5115C202.198 87.7375 198.192 82.4933 195.929 76.4421L185.73 80.2562Z" fill="black"/>
<path d="M334.728 105.351C342.709 102.11 349.549 96.5746 354.384 89.4454C359.219 82.3163 361.831 73.9135 361.89 65.2998C361.949 56.686 359.453 48.2481 354.717 41.0531C349.981 33.858 343.217 28.2291 335.282 24.8779C327.346 21.5268 318.595 20.604 310.136 22.2263C301.676 23.8486 293.887 27.9432 287.754 33.9921C281.621 40.041 277.42 47.7727 275.682 56.2093C273.943 64.646 274.745 73.4088 277.987 81.3896L288.075 77.2922C285.643 71.3066 285.042 64.7345 286.346 58.407C287.65 52.0795 290.801 46.2807 295.4 41.744C300 37.2074 305.841 34.1365 312.186 32.9198C318.531 31.703 325.094 32.3951 331.046 34.9084C336.997 37.4218 342.07 41.6435 345.622 47.0398C349.174 52.4361 351.047 58.7645 351.002 65.2248C350.958 71.6852 348.998 77.9872 345.372 83.3341C341.746 88.6809 336.616 92.8324 330.63 95.2636L334.728 105.351Z" fill="black"/>
<path d="M395.299 24.058C387.202 26.9957 380.157 32.2686 375.056 39.2099C369.956 46.1513 367.028 54.4493 366.643 63.0547C366.258 71.6601 368.434 80.1863 372.895 87.5551C377.356 94.924 383.902 100.805 391.705 104.453C399.508 108.102 408.218 109.354 416.733 108.053C425.248 106.752 433.186 102.954 439.543 97.1414C445.9 91.3285 450.39 83.7611 452.447 75.3961C454.503 67.0312 454.032 58.2443 451.095 50.1468L440.859 53.8601C443.062 59.9332 443.415 66.5234 441.873 72.7971C440.331 79.0708 436.963 84.7464 432.195 89.106C427.428 93.4657 421.474 96.3136 415.088 97.2897C408.702 98.2658 402.169 97.3263 396.317 94.5898C390.465 91.8534 385.555 87.443 382.209 81.9163C378.864 76.3897 377.232 69.995 377.52 63.541C377.809 57.087 380.005 50.8635 383.831 45.6574C387.656 40.4514 392.94 36.4967 399.013 34.2935L395.299 24.058Z" fill="black"/>
<path fill-rule="evenodd" clip-rule="evenodd" d="M496.082 21.4469H507.264V55.3986L539.291 36.9079L544.862 46.5569L512.636 65.1626L544.718 83.6852L539.127 93.3696L507.264 74.9738V108.553H496.082V74.7201L464.132 93.1661L458.561 83.5172L490.311 65.1862L458.414 46.7702L464.005 37.0859L496.082 55.6051V21.4469Z" fill="black"/>
<path d="M609.512 105.351C617.493 102.11 624.334 96.5746 629.168 89.4454C634.003 82.3163 636.616 73.9135 636.675 65.2998C636.734 56.686 634.238 48.2481 629.502 41.0531C624.765 33.858 618.002 28.2291 610.066 24.8779C602.131 21.5268 593.38 20.604 584.92 22.2263C576.46 23.8486 568.672 27.9432 562.539 33.9921C556.406 40.041 552.205 47.7727 550.466 56.2093C548.728 64.646 549.53 73.4088 552.771 81.3896L562.859 77.2922C560.428 71.3066 559.826 64.7345 561.13 58.407C562.434 52.0795 565.585 46.2807 570.185 41.744C574.785 37.2074 580.626 34.1365 586.971 32.9198C593.316 31.703 599.879 32.3951 605.831 34.9084C611.782 37.4218 616.855 41.6435 620.407 47.0398C623.959 52.4361 625.831 58.7645 625.787 65.2248C625.742 71.6852 623.783 77.9872 620.157 83.3341C616.531 88.6809 611.401 92.8324 605.415 95.2636L609.512 105.351Z" fill="black"/>
<path d="M644.39 80.9001C647.535 88.9195 652.987 95.8263 660.057 100.747C667.128 105.668 675.498 108.382 684.11 108.545C692.723 108.709 701.19 106.315 708.442 101.666C715.694 97.017 721.404 90.3221 724.851 82.4279C728.298 74.5336 729.327 65.7945 727.807 57.3157C726.287 48.8368 722.287 40.9991 716.313 34.7935C710.339 28.588 702.658 24.2934 694.243 22.4528C685.828 20.6122 677.057 21.3083 669.037 24.4531L673.012 34.5898C679.027 32.2312 685.606 31.7092 691.917 33.0896C698.228 34.4701 703.988 37.691 708.469 42.3452C712.95 46.9993 715.95 52.8776 717.09 59.2367C718.229 65.5959 717.458 72.1502 714.873 78.0709C712.288 83.9916 708.005 89.0127 702.566 92.4994C697.127 95.986 690.776 97.7815 684.317 97.6588C677.858 97.5362 671.58 95.5009 666.277 91.8103C660.975 88.1197 656.886 82.9396 654.527 76.9251L644.39 80.9001Z" fill="black"/>
<path d="M759.72 24.915C751.792 28.2834 745.041 33.9272 740.321 41.1326C735.6 48.3379 733.122 56.7813 733.201 65.3949C733.279 74.0085 735.909 82.4055 740.76 89.5241C745.61 96.6426 752.463 102.163 760.45 105.387C768.438 108.611 777.203 109.394 785.636 107.637C794.068 105.88 801.791 101.662 807.826 95.5159C813.862 89.3699 817.939 81.5722 819.543 73.1088C821.147 64.6455 820.205 55.8966 816.837 47.9686L806.815 52.2264C809.342 58.1724 810.048 64.7341 808.845 71.0816C807.642 77.4291 804.584 83.2774 800.058 87.8869C795.531 92.4964 789.739 95.6601 783.415 96.9779C777.09 98.2957 770.517 97.7084 764.526 95.2903C758.535 92.8722 753.396 88.7319 749.758 83.393C746.12 78.0541 744.147 71.7564 744.088 65.2961C744.03 58.8359 745.888 52.5034 749.429 47.0994C752.969 41.6954 758.032 37.4625 763.978 34.9362L759.72 24.915Z" fill="black"/>
<path fill-rule="evenodd" clip-rule="evenodd" d="M862.681 21.447H873.863V55.3987L905.89 36.908L911.461 46.5569L879.235 65.1626L911.317 83.6853L905.726 93.3696L873.863 74.9738V108.553H862.681V74.7201L830.731 93.1662L825.16 83.5173L856.911 65.1862L825.013 46.7703L830.604 37.0859L862.681 55.6051V21.447Z" fill="black"/>
<path d="M998.474 63.18L1035.71 100H1021.71L988.674 66.82V100H978.314V66.82L945.414 100H931.274L968.514 63.04L933.654 27.48H947.234L978.314 59.96V27.48H988.674V59.96L1019.89 27.48H1033.47L998.474 63.18ZM1053.18 84.6L1095.88 27.48H1106.24V100H1095.6V42.88L1052.9 100H1042.54V27.48H1053.18V84.6ZM1146.79 101.12C1129.43 101.12 1117.53 92.3 1113.75 83.2L1122.99 77.04C1127.05 85.3 1135.59 91.18 1146.79 91.18C1161.21 91.18 1165.97 85.02 1165.97 78.44C1165.97 71.44 1161.77 66.96 1149.03 66.96H1137.97V57.02H1148.47C1158.97 57.02 1163.73 52.96 1163.73 46.38C1163.73 40.08 1158.41 36.16 1147.35 36.16C1138.67 36.16 1132.09 39.1 1126.77 46.1L1117.81 40.5C1123.83 31.54 1133.07 26.22 1147.35 26.22C1165.13 26.22 1174.65 34.06 1174.65 45.4C1174.65 55.48 1166.39 59.82 1162.19 60.94V61.64C1169.05 62.76 1176.89 68.5 1176.89 78.86C1176.89 90.76 1167.37 101.12 1146.79 101.12ZM1239.45 57.3V27.48H1250.37V100H1239.45V67.38H1199.55V100H1188.63V27.48H1199.55V57.3H1239.45ZM1277.25 50.3H1298.53C1314.91 50.3 1326.11 58.28 1326.11 75.08C1326.11 92.02 1314.91 100 1298.53 100H1266.33V27.48H1277.25V50.3ZM1277.25 90.06H1298.53C1308.47 90.06 1315.19 85.3 1315.19 75.08C1315.19 65 1308.47 60.24 1298.53 60.24H1277.25V90.06ZM1409.38 61.36V62.06C1416.38 63.32 1424.08 69.06 1424.08 79.56C1424.08 91.6 1415.68 100 1400 100H1364.3V27.48H1398.88C1413.72 27.48 1421.42 34.76 1421.42 45.68C1421.42 53.94 1416.94 59.26 1409.38 61.36ZM1398.32 37.14H1375.22V57.86H1398.32C1406.72 57.86 1410.5 53.8 1410.5 47.64C1410.5 41.2 1406.72 37.14 1398.32 37.14ZM1375.22 90.2H1399.86C1408.4 90.2 1413.16 85.72 1413.16 78.58C1413.16 71.72 1408.4 67.24 1399.86 67.24H1375.22V90.2ZM1526.79 26.22C1546.39 26.22 1559.41 41.06 1559.41 63.74C1559.41 86.28 1546.39 101.12 1526.79 101.12C1521.89 101.12 1517.69 100 1513.91 98.18V126.6H1503.41V98.18C1499.63 100 1495.43 101.12 1490.53 101.12C1470.93 101.12 1457.91 86.28 1457.91 63.74C1457.91 41.06 1470.93 26.22 1490.53 26.22C1495.43 26.22 1499.63 27.34 1503.41 29.16V0.599976H1513.91V29.16C1517.69 27.34 1521.89 26.22 1526.79 26.22ZM1492.21 90.9C1496.83 90.9 1500.47 89.92 1503.41 88.24V39.24C1500.47 37.56 1496.83 36.58 1492.21 36.58C1477.93 36.58 1468.83 46.66 1468.83 63.74C1468.83 80.68 1477.93 90.9 1492.21 90.9ZM1525.11 90.9C1539.39 90.9 1548.49 80.68 1548.49 63.74C1548.49 46.66 1539.39 36.58 1525.11 36.58C1520.49 36.58 1516.85 37.56 1513.91 39.24V88.24C1516.85 89.92 1520.49 90.9 1525.11 90.9ZM1601.42 101.12C1580.56 101.12 1564.18 86.56 1564.18 63.74C1564.18 40.92 1580.56 26.22 1601.42 26.22C1622.28 26.22 1638.66 40.92 1638.66 63.74C1638.66 86.56 1622.28 101.12 1601.42 101.12ZM1601.42 91.18C1616.82 91.18 1627.74 81.1 1627.74 63.74C1627.74 46.38 1616.82 36.16 1601.42 36.16C1586.02 36.16 1575.1 46.38 1575.1 63.74C1575.1 81.1 1586.02 91.18 1601.42 91.18ZM1677.01 100H1666.09V37.56H1639.35V27.48H1703.89V37.56H1677.01V100ZM1741.77 101.12C1720.91 101.12 1704.53 86.56 1704.53 63.74C1704.53 40.92 1720.91 26.22 1741.77 26.22C1762.63 26.22 1779.01 40.92 1779.01 63.74C1779.01 86.56 1762.63 101.12 1741.77 101.12ZM1741.77 91.18C1757.17 91.18 1768.09 81.1 1768.09 63.74C1768.09 46.38 1757.17 36.16 1741.77 36.16C1726.37 36.16 1715.45 46.38 1715.45 63.74C1715.45 81.1 1726.37 91.18 1741.77 91.18Z" fill="black"/>
</g>
<defs>
<clipPath id="clip0_2937_1554">
<rect width="1800" height="127" fill="white"/>
</clipPath>
</defs>
</svg>
